<mxfile host="app.diagrams.net" agent="Mozilla/5.0 (Windows NT 10.0; Win64; x64) AppleWebKit/537.36 (KHTML, like Gecko) Chrome/136.0.0.0 Safari/537.36" version="24.7.12">
  <diagram name="페이지-1" id="mRwWNENzSzXIS7kcSTzo">
    <mxGraphModel dx="2778" dy="2092" grid="0" gridSize="10" guides="1" tooltips="1" connect="1" arrows="1" fold="1" page="0" pageScale="1" pageWidth="827" pageHeight="1169" math="0" shadow="0">
      <root>
        <mxCell id="0" />
        <mxCell id="1" parent="0" />
        <mxCell id="EXSZMAO2B3HAXZOh8qR--1" value="" style="shape=actor;whiteSpace=wrap;html=1;" vertex="1" parent="1">
          <mxGeometry x="-508" y="-66" width="47" height="57" as="geometry" />
        </mxCell>
        <mxCell id="EXSZMAO2B3HAXZOh8qR--3" value="" style="html=1;shadow=0;dashed=0;align=center;verticalAlign=middle;shape=mxgraph.arrows2.arrow;dy=1;dx=7.27;notch=0;" vertex="1" parent="1">
          <mxGeometry x="-439" y="-43" width="88" height="8" as="geometry" />
        </mxCell>
        <mxCell id="EXSZMAO2B3HAXZOh8qR--4" value="Developer" style="text;strokeColor=none;fillColor=none;html=1;align=center;verticalAlign=middle;whiteSpace=wrap;rounded=0;fontSize=16;" vertex="1" parent="1">
          <mxGeometry x="-523.5" width="78" height="18" as="geometry" />
        </mxCell>
        <mxCell id="EXSZMAO2B3HAXZOh8qR--5" value="" style="verticalLabelPosition=bottom;html=1;verticalAlign=top;align=center;strokeColor=none;fillColor=#00BEF2;shape=mxgraph.azure.github_code;pointerEvents=1;" vertex="1" parent="1">
          <mxGeometry x="-327" y="-64" width="50" height="50" as="geometry" />
        </mxCell>
        <UserObject label="Push" link="config.json" id="EXSZMAO2B3HAXZOh8qR--6">
          <mxCell style="text;whiteSpace=wrap;html=1;" vertex="1" parent="1">
            <mxGeometry x="-412.28" y="-70" width="34.57" height="22.18" as="geometry" />
          </mxCell>
        </UserObject>
        <mxCell id="EXSZMAO2B3HAXZOh8qR--7" value="Git&lt;div&gt;Repo&lt;/div&gt;" style="text;strokeColor=none;fillColor=none;html=1;align=center;verticalAlign=middle;whiteSpace=wrap;rounded=0;fontSize=16;" vertex="1" parent="1">
          <mxGeometry x="-341" y="-9" width="78" height="37" as="geometry" />
        </mxCell>
        <mxCell id="EXSZMAO2B3HAXZOh8qR--9" value="" style="html=1;shadow=0;dashed=0;align=center;verticalAlign=middle;shape=mxgraph.arrows2.arrow;dy=1;dx=7.27;notch=0;" vertex="1" parent="1">
          <mxGeometry x="-253" y="-43" width="88" height="8" as="geometry" />
        </mxCell>
        <UserObject label="Webhook" link="config.json" id="EXSZMAO2B3HAXZOh8qR--11">
          <mxCell style="text;whiteSpace=wrap;html=1;" vertex="1" parent="1">
            <mxGeometry x="-238" y="-72.41" width="58" height="27" as="geometry" />
          </mxCell>
        </UserObject>
        <mxCell id="EXSZMAO2B3HAXZOh8qR--19" value="" style="whiteSpace=wrap;html=1;aspect=fixed;" vertex="1" parent="1">
          <mxGeometry x="-147" y="-185" width="295" height="295" as="geometry" />
        </mxCell>
        <mxCell id="EXSZMAO2B3HAXZOh8qR--21" value="" style="outlineConnect=0;dashed=0;verticalLabelPosition=bottom;verticalAlign=top;align=center;html=1;shape=mxgraph.aws3.ec2;fillColor=#F58534;gradientColor=none;" vertex="1" parent="1">
          <mxGeometry x="-180" y="-235" width="78" height="85" as="geometry" />
        </mxCell>
        <mxCell id="EXSZMAO2B3HAXZOh8qR--22" value="" style="shape=image;verticalLabelPosition=bottom;labelBackgroundColor=default;verticalAlign=top;aspect=fixed;imageAspect=0;image=data:image/jpeg,/9j/4AAQSkZJRgABAQAAAQABAAD/2wCEAAkGBxASEBAQDxISFhUWGBoVEhgXFhIVFxoWFxUZGhgXGBgYHSghGB4lGxcbIjEhJikrLi4uGB8zODUtNygtLisBCgoKDg0OGxAQGjUlHyU3MDUtNzEtLTAvLy8uKy02LS0wLS0tLS0tNTAyMC8tLy0rLS0tLSstNS0rLS0tNy0tLf/AABEIANAA8gMBIgACEQEDEQH/xAAcAAEAAgIDAQAAAAAAAAAAAAAABgcDBQIECAH/xABHEAACAQMCAwUEBQkECQUAAAABAgMABBEFIQYSMQcTQVFxImGBkRQjMkKhFVJTYnKSsbLBJHOCohczNUNjwtHi8HSDo7PD/8QAGgEBAAIDAQAAAAAAAAAAAAAAAAEDAgQFBv/EAC4RAQACAQMCBQIFBQEAAAAAAAABAhEDBDESIQUiQVGBE7FhccHh8CQyM0LRFP/aAAwDAQACEQMRAD8AvGlKUClKUClKUClKUClKUClKUClRLiztBsbA90zGWc7CCLDPk9ObwT47+QNVjxF2la1LKtvDC1qzgGONY2edlbODl193goxg0ML7pVF2HZ/rF0O8vr+WPO/I0s077+ahwq+gJrut2SSAZi1KVW8+Rv8AlkBrCb1ZdErnpVItoXEtj7VpePcKN+XvDISPLu7jIA/ZbNbvhTtaDSi11aL6NLnl7zDImfKRH9qLPnkj0rKJieETEwtOlfAc7ivtSgpSlApSlApSlApSlApSlApSlApSlApSlApSlApSlApSlBxdwoLMQABkk7AAdSTVT6pxTd6rJLFp8ptbCMkTXW4eTHURn7oI6Y33BJGeU8+2DjdQkuk2qs80oVJmXfkDEHugACXd12x4B/Pao3FpGofRoYLq7t7GJAOWFE72Q+PNIoOSxOT9rGT0FEu1pkOJRZ6HEqSMMzXco55FTO8jE9CTnlQdT5YOJ/oHD1vZBinNJM+8s0h5pZD72PQfqjatB2Suv0Kc/akFxIkr+Llcchx4AIQMeG/nUru7qONHmmcIiAs7HoAK1tS85xC6lYxmWdpDXE1X47QLydi+n6XLLADjnYsrOB1K7co9Mt78VPYnyqnBGQDg9RkdD76qtWY5WRMTw5VpuJ+Gre+iMc6+0B9XIMc6H3HxHmp2NbmsF9LKsUjQIHlCnulY4Uv0HMfAeJ9wqI57JnhBOz/iifTbr8jam3sZC20hzheY4QAnrG3RfzT7PT7NyV55460PW5UE18IZljycwheaNSPaH2FYrtn72MZq2uy7Xze6ZBI7c0iZhmOckvHjDH3shVv8VbtZzDVtGJSylKVkxKUpQKUpQKUpQKUpQKUpQKUpQKUpQKUpQKUpQK+McAnyr7VNdpXH0lxK2maY22StxMpxnGzIjDoo6Mw69B74mcMq1m0xWsd5Rrg685jfao3tTSSlISd+Qy80kjDPiFKqPLNdl3JJZiSTuSdyT5k1GtG1eG3tmjkJ5u+LAAeBjRc56dV862dlq0U2RGfawdjsfh4GpRKwOyqDFgZf008svw5uQH/JW14r0Nr1LeAsBCJlkuRkgvGisQg28X5fLz8K48Bgfkyw5f0KZ/ax7X+bNb6tK1vNMtqI8uHGKNVUKoAUABQBgADoAPAVxE6l2jz7SqrkePKxYKfiUb5UuLqOJGllZVRBzOzHAAHiTUP4t4ptYWt9Rt7iGXkzDPGksZaSGQg5QA7ujAMPcX6VFa5JnCaUrjDIGVWHRgCPQjIqK8CX/IJtMl2ls2KLn79vnMTjz9kgH4edRjsnKTzXKI0ascGRuRPewRnx+6rH4VH+zKMW+oa1ZIMIskVxGPACZCWA9wwo+FaPjrjizMclrC0v0qGVWiAjfaeJ8gb4yCMrtnIbbNdGbjI2GtfSZYWCXFtB9IQ/6yPIJyAOpUg5HiM+NX6VZiVWpOYXjSsNndRyxpLEyujgMjKcgqRkEGs1bCgpSlApSlApSlApSlApSlApSlApSlApSlApSsF9dpDFJNKQqRqXcnwVRkn5Cgr7th4xa2hWxtSfpFwNyp9pIicZHkzHKj0Y+Aqq3sxa2cnL9sqAxHvIGB7hms1tdve3lxqM+csx7sH7oxhVH7KYHrk1n1KIyRSL4kHHqNx+NaetqeeK+nq9D4ds+nb21v8AaYnp/Dtz8t/pdk+maRDfWsML3EypJJJKC3KsrKI4o1XcsedRjIGzEnoK6PEyXF6qzGyMWo2siC4jjGe8hkBKOOXOQCuOpxlhmpFwVcpf6TBb82JLZolceP1EySRn0ZUAz558qmgtU70zBRzlQhbxKqSQD6Fj8zWc3xLjRTMNB2eWtxFYrHcxmNhJIyqSCQjuXAODtux29KktKVTM5nKyIxGGK5t0kRo5FVkYFWVhkEHqCKjcHZ3pSSCQW2SDkBpJmTP7DMQR7jtUppSLTHBMRJUR430KZmj1Cw2u7fw/SxeMZHj1OB45I64IkdvqkbXM1rj6xI45N8brIXG3pyb/ALQrpa5xPZ2g/tEyhvuovtyMfIIu/wDSpjMT2ROJhj4W1q2vohcxKgkHsyqQveI35pOM48j4iq/48hWXVbhG3AgiU+4nLfPepNwNpcpvL/UngaBLjlEEb4V+XqzuoPsliAcHxLVDtQuBLqGozDcGbux6QoE2+VTby5w2tjTr1qxMe/2luuyLih7S5/Jdy31UpzbseiyN90eSv+DftVd9eYtftS0YkXIeP2gRscDfY+BHUelX12fcQ/T9PguGx3mO7m/vE2Y48M7MPcwrZ0r9dctbfbX/AM+rNY49EjpSlWNMpSlApSlApSlApSlApSlApSlApSlAquu3LVzDpogU+1cOIzj9Gvtv8Dyhf8VWLVKdts/eanp9tnZI+8I/vJN/wh/GomcRlnSs3tFY9Ues4O6hjj8QMt6nc/jXOuchyTXCuTM5nL3cVisRWOI7NeIbm3m+k2Ehjc/aAxg+YwQVYHyNSjs/vLrUr9pL2dsWgDpEmERnYsuWC/axjxz1HQZB09cuEL36Hq8TscR3OYWPgGfHLn/GF/eNbWlqTbyz8OD4nsq0j6tPfv7fmuU0rnMuCajE181neFZj/ZblgY3PSG4Iw0beSSY5gfzi3nWOMuXlJkXNRrVNYuiGl01IrgRO0U8Lc0UodT9xj7j0I3BBB85HUZ4o0e75xeaZIEuAAsqNju5kHQMDsGXwbbY4yKmuMonKB8R8T2k8ivqWlXCSoOQETSRHlznGcJzDJPzNZ7PiKytoLe40zS1MkzSoCWaSRTGUyeYBmbPP0BHSt1FxJr4HLLpSsfHDco/nYfjUm4aur+QM17bRW4+4qyd45PiW5fZA+JO/hVsziP3YRGZ/ZF7e5v4oJ9W1V+UxofotsPYRXb2VZlycsSQBzEkAn0EO0eIrCnNuze2xPUljnJrc9oOui8vFsYm+pgYtKQdnlXYj3hc8vqW8hXTqnWt2iHa8I0e9tX4j9f0CPOt92G6gYb28sGPsuvexj9aMhT8Sjr+5WhrjwzP3Ou6fIDgOwRvf3itHj5svyqdtbFsLPGdLq0Yv7T93oulKVvPMlKUoFKUoFKUoFKUoFKUoFKUoFKUoFUP2ntniBc/dhTH7sp/rV8VRHa1GU12Fz0eBMeuZl/6Vhqf2y2NpONekz7x92tpXxmABJ2A3J91aS51hpD3dspJP3seHmAenqa51NO15xD1253Wlt65vP/Wzvb+OIe2d/ADcn4Vo7tri5GVjIRd13wSfMHxPpWxstGRPrJyHfqcnKg/HqfWu5LfKNlGfwFdTR2cU725eT33jGpr+WkYqsDgfjuC7gjiuZFjukAVg5CiQjbnQnYk43XqDnwwalF/ZRTxPDMoeNxhgehH/AJ41QXdgTrP3UUmDl4pFzG4IIIIHQ75B8Dg1uNT1bSPocwt7W7tbogBFFxO0JJI5se3gqFzsQKrvt8T2UU14mEmt+Lhp0n0aeeO7tgcRyxyRvPEPBJkBy4H5w328egmWncRWU680NzC3u5wrD1VsEfEVQt/Np8J7h0l51A5mTzIB8Wx4+VYrK1icmSFBcxrs8bc8TjPTdT126jPpVPTW3fhu3296T0xMWn2ie8fHPb8Mr71PimwtwTNcwj9UMHf4ImSflVc8V9p8koaGwVokOzSt/rCPHkUZ5B79z7ga0Ut9YJCv0fTVSSTYSXEpnRRnBZY22OCRuRj16Vr9Rlhs0jZY1nZ85ckcoxjoBkDrUxWtfTMopo2vEzM9MRz88duZ+wul/VLNbSFmX7Xhv7gdwfcetbHSdWEvsPgP+B9Pf7q1ejXhLM6AKHAblH2RuQR6ZrLrkcZUTJ7L5GQPH3j37da2dTRrq0zxKja73U2mtNYnMfdIq105xf6Yw6i4i/CeOu/FnlXm64GfXG9dSKIyappkY/TxE+gmUn8FNc/b/wCR6XxSf6W3x94elqUpXQeSKUpQKUpQKUpQKUpQKUpQKUpQKUpQKp7t9syr6feD7rNE3rtIn8r1cNRjtJ0I3um3MKDMijvYfPnj9oAftDK/4qJicTmFL3UfeRuo+8px8RtWs4WkXkdMAMDknxIPTPoc1n4fuhJCvmvsn0+6fl/Cumg7m9/Vk/5v+4fjVG0t0ak1l2fGafX29Nev8/neHYlZiTzHOK4VnvFw7fP51grpS8xBWG7j5kYeONvWshb2kUDdjgfImuRHnUcp4RPiVua4Zx0dUYfGNc/jmvukXMqqyjl7s/b5lyM+7G5b41s7nTiXUCMMSQse535m2XGd9yasfQuE4YU+tVZJCpViQOVQRuqL0A9/U1rV0pny+zf1N1FbTq57z+vLTaT2bX9zEswaBVMYaEF3clCecKeUEINxvvUa1bhm+kuHimjn71RzcpKOAhYgFTzAcpIOMeVWRwm0CJfaPqId7dF+lwYMnOYkbvCq8ntEqwzgdTmtlql0k2qTTxg8jWlqV5gVOHMzjIO4OCNjSunHVhjfcW6Jn07Kk021MTNE4ZWQAEMOVupJOPLJrsyR880Mfhnmb0WtlrV8Li4aVcciju4j5qDu2feenux511dFTmlll8B9Wv8AE/0+dTrW6NKWew0vr7qsTH5/DcV2Ozq0+ka9E33bdHkPl7Kcg/zyj5V0rqcRoznwGf8AoPnU77B9GK29xfSD2rh+VP7uMnJ+Llv3BWhta95s7/jWtildP37rTpSlbrzhSlKBSlKBSlKBSlKBSlKBSlKBSlKBSlKDz32g6GdM1NpFGLa5JdPJWJy6f4WPMP1WwOhrRcRr7Ecq9UYYPuO/8QK9D8X8OQ6havbTbZ9qNx1SQfZcfPBHiCR415w1aCe17+wvFKyJjkPgQDkFT4qQNj8DgjApvTzxeHR225j6F9C/Ex2/P92x1DBKsOhH/n8a6tZEbmt4G92PkMf0rEc4OAT7gMn5V0Zn1cGI9H2Jcyw/tH+Rq5zfab1P8a19utyJYgsUjHn5Y1IPMxbKqufM5qUW/A2tzEkWaxgnOZJIx19wYn8Kw64jlZ9OZ4R6eN8o8blXQ5UjzreabxtJHhL2Mn/iIBn4r0Pwx6Vt4OyjWG+3LZIPc8rH5d3j8a7Ddjuokb3lv6cj4/hWE3jmGf05mMWdDVdZizbalZyK72rhnUHDmJtnUqcEbHx8zXDi/iRZ57w27A9+yKGU9II4UDHI6FnLgfE10te7KdQtY3nZ7Z0RWduVpA2FUk4UoB0HnUVFhMsPfAgKQG2Jzg4x4e+o6pmc4T0RWvTl3bqQIhI22wv9Kz2t9DbwojNlsZYLucnffwHl8KzahwZcJp1vqbTI0MpTmGHLRiQ8vM2djhsAgeJqy7XgzTrHuUisZtQuXAYNIB3Sj852Yd1GM9Bhn26GqtaI1MRPDc2evbazNqxmZVLqdxLNEknczpb8w5peRih3xs+AhI3wM7mvSnCc1q9lbGxIMAQLF4EBfZww8GBBB9+a7UNsZIO7uY4sMvK8a5aPlIwUywHMPfyj0quuyKY2t3qmjudoZDLBk5PISFP+UxN6uaitYrGIY62tfWt13nMrSpSlZKilKUClKUClKUClKUClKUClKUClKUClKUCob2ocLwXllNK64mgjeSF1xzZVSxQ+atjBHxG9TKupq8Bkt5413Lxuo9WQgfxoPM+ntm0j9zEfi1fRWusL/u4+4lVlZWPNkEEHxVl6gitgrAjIORWzWYmGresxMssd40clvIWOI5oZD6JKpP4CvT1eVr9OaKQean+FemOHb4T2drOP95FG/wC8gP8AWqtXlbpcNjSlKrWtNxSnNbyL5pIPmhFebo52a0Vc7d2PwWvTOtJzIB55HzFeX7SRVhVWYAheUjO+Rt0rPTnlXqR2hafDH9o4Suom3Mcdwo9UZpU+WVqXQlbrTLMtBBcc0cbmOaTu03QHJ9ls9fKqq7NxqU9neWVjDCyOxMks0pVY+8jCcoRQSSQpOR08a3l9p/EWnW9vGDHJCgEf9kha5lRVGxKuq823j023xtnBasnhu3WEFVs7e2H/AAZI2X44VT+FQe2jxxcGj/3luXl9OUpv8Ujrp2PGNwmV+i6vcyEbB7OOFAf/AGwWH41I+zbh27E91qmpIEuJwEjj2JjiGNjjpnlXbyXJ3JACwaUpRBSlKBSlKBSlKBSlKBSlKBSlKBSlKBSlKBSlKDRcRcI2F8uLqBGbwkHsyD0dd/h0qp+IOyC9gJfTpROn5jFY5fTf2H9fZ9KvWlB5dudJ1OPKy2Fz03IhlIx4+0gK/jV1djOod9o9uM5MReE+iuSn+RlqbkVV3ZMPol/rGlHACS99CP1Dt09yGH51MzM8oiIjhaVKUqEulqg9lf2v6GqPl4Vtm0e9uhH/AGhXnbnyxwsNy+QFzgfVrjpV56iPqz7iD+NVLpfENjBZ31vdTord/dp3e7OQ8r49gAnB5utQmE+7N4YV0qxMCIgeGNn5QBzScgDs2OrFgck1JqgfYi7nRrcPnZ5QmfFe9Y7e7JI+FTypQUpSgUpSgUpSgUpSgUpSgUpSgUpSgUpSgUpSgUpSgUpSgUpSgVU/aLc/kvWLLVwhaKSNoLgLgElRsMkgZIKkZ/Q1bFY54EdSsiqynqGAYH1BoIPp/a5pEmOeWSInwkif+ZAy/jW0/wBImj4z9Og+Zz8sVzuuANIkJLWNuCevIgj/AJMV0v8ARbouc/RP/mucfLvMUHU1TtR0tVIFwG/ZSRz8MDA+dRDs30uy1LUtUuJbYSwFleIyrlQ7sxcEZKknrjfAx0zViw9nujr0sbc/tLz/AM5NSCztIokEcMaRoPsqihVHoAMCiWSGJUUIihVAwoAAAA6AAdBXOlKIKUpQKUpQKUpQKUpQKUpQKUpQKUpQKUpQKUpQK+GvtKCqOMe02/025NtPaWrHkEqsksuCjMwHVBg5Q7VZGiyXLRBrtYVkO+Imd1AIGN2UEnr4VRfb9/tRP/SR/wD2z1bPHvFP5NsO/VQ0rFY4FbPKXZSctjfAVS2PHGNs5olKq+VSLcSu2kPeyazy35JkSJZoFAUS8oj7gDfKDO4J3Hh13/DPE91qejXMwuGhubbnzJEsWJOSLnXmVlIwc4IXG65GOlELPr7VLdmOo6tqS3kbag6KvdlpORHlHMJPZj2CpnGSxBOwAx1GXs74j1CPWZtMu7h7hAZY8vuQ0WSHUncAhTlcnqPKgxdqGvapYXscUOoSmOVRIFMdsCv1hBXmEe4xjHj55q6Kozt7/wBoWX9z/wDqam3EF5Je362Wm6g8EkI5rwqY2UJkjkRCpLScxGTkBRjOSQKJbftFn1BLF20xSZuZc8qq7iP7xRTkFungdia5dns9+9hG2pqRPlvtKFcpn2S6jZW92B4Vou0aK7s9MNxbahdB4SoYt3Dd4JJVUlvq9iObbGBt08a+9md1dX2kMZrqYSmV1Ey92ZFClSAAylceHToT060QsGlUb2da3rF7eXFq1+20bczsiNy8sqKWjQADnPQFsgAk4PSs+m67qNjr66fNeSXMTSJGe8wcrKgZWH5jKWHTY4O2+wXXSqo7XeMrq1urazgkeGNlWSeVFUyFDIVZULAgEKpPTJJHx2FrcGeS0k0jVJbiNZY/pdu8kbP3JYcz+2BIuAclehHQZGCFj0pSgUpSgUpSgUpSgUpSgUpSgUpSgUpSgVTnaqt+NWsyty9vblUEcxlMUEbhmMneHIXmwBgN9rYDxq464soIwcEeRoKD41h/LetKmnfWxpHHBJMoJjUB3Z35+mAJMDzI2zVidrvDUt5p6rbKWkgcSqg6uoRkZR5nDZA8eXHjU3RFUYUADyAAFcqCnOzXjzTrazWy1EiGaFmA54nJZSxYDZSQw5sYODsMVMdQ4gjbT76aSFreFkeO2LqVkmzEcN3WOZcnPKDuQM4FS8xKTkgZ8DgZ+dc6ClewO8jia+jmPIziNkDAjKxiQuQSMbAg1qeHdUhTiWS7diIGmn5ZCr8uHVwpzjoSRv03r0BSgoTtvvI5tQhEJL91HyS8gY8rd42VyB9oeQ6Vg4s006be22qaQea3lJeLl5ioYbSQt48rDPXf7Xior0FSiVW9ofFtpeaHJ3LnvJTFiIhu8DLLGzqVx90ePTy6inYzrdtDpksc8gjaKR5JA4ZcIxUKwyNwSQNvHarSpRChOxi8SPVZzJlBNG6xFlZQzNMjBdxsSB0PlWPiXUojxMl0GJhSaDmkCuVHIiBzkDcAg5x5Gr/pQVlxXqenXV81pqka/Ru6iltroc6LG0vNlXmXZA4UEZwDynPhUCn4bjj1i0j0O4a5AaOQujLIIfrDzB5Y/Zxyg5zjY43yM+iiAdjXFEVRhQAPcAKDnSvlfaBSlKBSlKBSlKBSlKD/2Q==;" vertex="1" parent="1">
          <mxGeometry x="-144" y="-77" width="84.93" height="73" as="geometry" />
        </mxCell>
        <mxCell id="EXSZMAO2B3HAXZOh8qR--26" value="" style="image;sketch=0;aspect=fixed;html=1;points=[];align=center;fontSize=12;image=img/lib/mscae/Docker.svg;" vertex="1" parent="1">
          <mxGeometry x="50" y="-66" width="68.29" height="56" as="geometry" />
        </mxCell>
        <mxCell id="EXSZMAO2B3HAXZOh8qR--28" value="" style="shape=image;verticalLabelPosition=bottom;labelBackgroundColor=default;verticalAlign=top;aspect=fixed;imageAspect=0;image=data:image/png,iVBORw0KGgoAAAANSUhEUgAAAOEAAADhCAMAAAAJbSJIAAAAYFBMVEX///9T0vpJ0Pr5/v9Fz/pk1frs+v73/f962/vI7v1W0/q47P3o+f7u+v5d1fvh9/522vus6PzY9P636/3Q8v3b9f6J3/zA7f2h5fzM8P2X4/yE3vug5fxu2Pt52vup5/zJCxy5AAAVD0lEQVR4nO0di5aqum4oIIi8RAQBGf//Lw9Qkj6BoiD7rjtZ66zjbLE0bZp30p+fP/iD/x+I7nmVZ6H94TBeknXjJN4mc9oOvLx2A8silmUFbV2Fbw4Tnuu2H4b0wzyzTxdrQ7i1/aQACImbcv0eRJcmEIdJyx3m+g5krWNJQJzguW4jk1pAj4LTvEsNm8JLmdi4BUVmPEbuq+gNg1j/wDY+9QgO06vNtuBe6PEbBrnsPP9FeCkUyk8veC2P4NXWJH79GAfv4kWYnLoVJKgWRihV/KRhzIl9B0gCblpu6vtpKzMMUpzmBvClp4nVD/PrcqO4R8rGhjBEslMnv+woqYpYQJLE+eTvy0CkgaApk1OHkH3Kajb044sYSZA7WizsXGQd5Kn/uVfwh5g4qSBFkxbGIHNUsCvYPkyhlZnm6cHvjvp9D7nwCCnu0vceUAipd0JgETKcYaJ+GdYcAiRWGc5NoE9fw0+idvw2PmoT4aiQm/bre8oRIblO/JieP71IyOEFB0mMKIYlnnrixm9jwX9zcnkEJ6kQOG265bzNwWCFw4ZDsWG0lnEIknaa12awhsfop49xlm4089CVRwXmWTEx2u3tzM/t8SSS85YTNwZ4ezH7FLddJKAolryQ0J9hgHEVD+KmjhkbiDhKDXqOyW+rK4sICe5AJ5vNegUkgOHiGeHYZqcZPDgE0zkC7wG4mbPRpFdBZXIMKdw4xlmwz06x6KcApcI5gtWM0ya+gTsl5zgL+zR/BCmM+0+WTJQ94LWGCWSxagMa2bbwliNkPqyumeZ/V1A0m/NogCoq0TegWPduQYuxjO3a86p13BYAQ5PT1APq0QNPXZASCPmBAnEUc+auopJjMhMWowqZcxiGtr+SByQ8jRrzxgMxxD00xDAMLAHFaXVbgCMxXHcOT63ESw1P4pHncB0v/ZWFBYmXdaEf1JwOwRDkoYHTV3DK4QcjL2F5oLRYY9hwsY2a7eKyWsp0Q6N13BhGI2jBPByAyYmOppnxZLIxr5VSd0uAaS9r3hlum9NvBTOfDOZdH6iXgpumXTpOEaNLStGcO3tRdwOZZChcNgWwgIMFnmgjlyHgMmOSY8kT6o2qnqPxyO4PhjY+EiVBW/kEfshF6xJt/EOiM6OSsuAHY1yGcwkyDW6BFYfgsdxkxmshtQwYOYu/CUfpzI7iLA8BV0m7yYzXQm0iLlgASVwIzh81R+UgdJstJrwaSoP1RbaprEPB+M/MUQRWeoSJb+Ryx0NIfmVW4aX43fRRBFZ6iCOq4wLAESeFGj5hWfcfT4SfO35nTc4fTnFg6hLYGGCBJ3iFzVlMcRsH/WwJoXkIQdD9C2IYTGXDoU/2oFB+oWU1UZKdr7XvajIzJqF7tG0eZZZICgAk6/x+ESsewJU9xg/t6JRfi7TbG7ICOQ5LQgI3bZ5lEsGWgUAydutsDAmI405XCctHExPnHdQ0iLbF69wrQPCCYxhNR4/uOKuisZy39m0OT8fywZYMDkvGAJm2KXI8nuP/06Nyhu7+7Py2Q/SQ+Khd1cFc0h6bXg/OCP1B7f7DP4khbTfXLwvEU9WYUiYprpcyz+5h5PEyz/aiMMny8+VWmIzTLURcZ9+iVS8v3Bn0uq8Cl4UoFo0Cmz3bpO6MpCGkfX7DDo5e7fQUnI7/Pcs88TAiuuymQJnTSz07zM6vJnYmpA4hfrlzentWOFPoBX59QToCo9DIzYnONwcsSPt+efqB7k3dDtc7HsnMn8zmbZOIW1x0jy56qXqwU93jtjdxQknQ5PtsZNZoUoDhX2L+nWjXG3rI7kinghnoyi9hb/V3UHISlT477ap4gbOGfyVkoxnLMTT4A46VgPkZvApLfjdx2o1zo9Vs846z1T2x/KrIYO53YExMYEjx3gpAO7V/vKpW2DdptjyPlRSD76VTTl2DcOQCfNhDGjX3U6NjiqPrkUhHuyKqCon1kOC11XG0a2lox2fpysDrkQ/i2hN/xTvQa4zy8w7uWNyq060VqZVsRKp3Kds8Fut9wIQDMkW2MetDkwH9HchsYFldgYfV0mS2MBxLcf/cm+TEB2kGDm1Mzta7x2xPT1ooFF1qKUWuHofwJSTm8Emrb8JDGC++KAIOzWDq+j5r5ceIXfUofL8pHpXmO9xE6lcFD42qFEUvnusR90NNTszG1gbDQK/0xYkqEquTp4OZPFgXjTLxCt807ApIHF2GtSfi+FFYikOQBA99kAl8ooMsA2JTnNSJqC8Q0shrL9QeQObGRMggFPSdD1DkU0HbKfEDTKKfDEoK2cFZKlqmkp9/RykTspUKpmiw4gYM3mapXNnWnAqN68mko8wftBVujrQ/4DrsvZOwhdMSx+MP0JvZp2jWdBxmbpVYzn4E2xCLDOkhb6B22ZiqcIdyo9nIHcfl3bdkv4dlZfqiHvYg8JoGd0FkSRc9gpacE4epxD6QxbyvO2OB1reSUS4MwYU4Nmpu8MJA+Po04xAQpVkgf70g0BOUjeQNJRUrYshyKoKsFIs8pJnBUGS5pfSksyTOMVxO3qiqYWkvy1qDhIMYEMymEZQFup3O4a8D5gJZLzJwdQwshEpAwhGF/awzTYrqVALPNXHmw9ldHyW+r/oln/4rcXguhqgDKbwqFM0aBe/hF6uzNZBIjY4wf4AckV6quS1U9innC/qM7MuMrHmaA6Atk2oKLkZjKZV0E7IQ0ZD4PHcSDUpVfljNyVqBYRulkujwkA/PDCcdHpdOAdty01dDbt/Kg+iBeWZYFufhlOVwbWvNg3zYfvEbw4OFKTfr9BrE0JQJN3p1hvkEp0CuSlvNHHMj/UeBtWkee+yh0TFkNvdKDPH8rjsMmjV5/xwaso7Xe1SKtu/val4qbcpKXspt+UpeapCrLADo3QbBo59D5SEkHq3OBD+BhWbk9TxQp2lWbQUPIHpNkuYO1EsZ9axBbgDmaF/W246zLU747HobmEWfF7tSRJIXZjP7kCzxGg8z5yZdVjOApEfihV8r7HIzG3+Be0QsP/ctNwY7QLOOKNR/rBa7uYiKjbw1DANxs1U/zbx7IWS5j0uOFj1E3JLOMW50wL/Q4n7P14ZGN/O1zSmNXPW086ZTmIWROp43vZpog0asn8tW/tIZMc67q9+u++LrWicTeRPOexviwf/Q542JnVN+zHvLL/+7CIqeTlLo34ahit7Qwk38NG4BoQL98YiefHeU5pNkqRuvRVkv3VBwegbdHmuctoo9afWam9Bh6sPMxUoYzHopPOsuHj3072jjh6+i8ZvitSZ+qEgqT8DvIxIdMRAKeEn8kGgVDzydCrr4p2LA9kIMeOT7UL0vDxPdxKyJLYpLPVEnIUHNLyuqPuCyQtUyWBXHh+EdOHjAWQXHVvgUm0+QjZoPSa0NidPeUBfBlAkU8sUUs5kDX/kRtr/B9fTKVMocIv5WTV1Osn1AgqKi1IRCDA8oSowV68tqaxh9gKeInssol/Np+qj7hvltZ7mcnhC3rjzmdeSMQuxoOtnlTAYbRSGnKbwYmXp5reZ8En/jbNObkpdIHIvltXGaKOqpxlwAw7m8NwmM9+BVaBrwEnf75D1b4mJ0J+ETL0WYVbKqb4IsRFvlJey97T613d5NplWE1uPFLjKbucI7Niyiwok2OwqbiXd1+6em9WwF3rmdShJO6xumCKNFaFQ3iOcWuJV9L5++pu0Sfchx32ilvQaSR6xHkkvzZkkEBnTKvBwXO8n74iJnugCHWMUX6ta9czO1wMOhid22QcV42V/G/HSuG8wWhZEgvX6rPii8pIYFF329xTnPErHewvaiU5hkVXm5GtVbDLvnXu9f7UMflcX0TvIz26JmhpD0dkjPgdpw/T+FtnzLDfM5sD7C+2AKwx7XR/gE/KRogj3qD5ti/Os9T9oGgB6xU686Xus0MD1X88g5xG0e5YmlIqlm8JcAg4bj314Unh99IfBbiA4/itvf4pqfgO/Oe2v2BzDqpPBUlGTlq0jj2QsBZOws16+vVZaI9AjV4gcdRE+04FSIDOvxSXqaEHQmjSl2hERXESQ+wfdUsG2uo4Jtcz0VpttOYGOKY0qdwUiaCdywDE7F5cf1xZjplr3YmGJXAL/0XIoA62Ay3dtk7pAd2+0a2MCcx8nGFAbptCIfJrNnDN5xTFOFVjt1CVgnMyGOhGb9QmgTUrrW1FBtBzDzeQpimbicA5U1wlwQdRBrN3ZqbQm2Ya8v1mYIE2Qi9PgsRXnBNXlIP2/Tfm0c0wT/NfuXZsHigyjtIf28jXvuYb6E2nNvMf8Q8+uOEBfmfRNZv/Ih7MsFhBe9OJjTdYRmCn03DaJbLNAq9r40mPbKntqbwpqe7FzMnetfapKJtq4v+rYAzeKMMuZYvhr7YBSbWtXbfmOo19CPLd3N1f3OrLvVij6wmwNg+F4vaNKamQsrTvvmsLI7bCKmdJlGiKFT8hGNE9f2vxV6suvuwNICYGhW97EtAIZv9dU3Fm+Xf2APTSN5Jz6R2Ng/eDsQw8c6WRyKnQJcQ7/Ekbz0ukoWy9ewEMO++kde+FSueXeu5LPPV08jHKnTwK0FSwZQD/qSBINYp31kE9pwNBEMekFxbfVJyn1eZlLeoa4o0zu7bC4I2mmxfObrIoWjjX9I5MKwgO/EqaQDsfH3rjULUgP8NM4ht5Abdbv+qTgm6tDF4O7OI+48v8HWA5vNeg1gWdzcBYbcpdbswtmKYzez1hf24TkmNLOQqdwDf6Ex3x1FuMNy5gJ1UPSOakILNTyTXusrf4+coKjxGs5EZ58e8DLZg26Rh/M0oXznc7ep8gzWciaa32CJ4BE6Ww/sMlnNEieFxYO6CFce/0B30Xw43ZLpW4Ct2RSDPRSa9OmV0Ep4JHjIYzC3gFGDyV3AQ9+1eC931Qipb06tn+FJcN4QIqas5XhUnaPC+D/89ZukqUJ6t/pZvls9mKaxm1RmEhfnoU2ofcq5c3pQjHsA1nq0n17q+2kr5/NOldpQyGQHFQnafhihEeQRt+ggJHLJoARzGziAfV1KTDnEcOIgm52cZeAuPhWzOB4mKRBybb9fun86EaAbIp1G8bOyrW3gria4D1Nb09K4nOqfbXQ32/6gHiVC3Ou6bLtK06VYrVE8DE6PlmWy9ezw+UY2b/KQqkZIXB+Vk6iBKLs2bdyB69dl8ubR8e7XNKBJxcQK2ttB6vbOYCdVWd7Kc/YPbd8f/MEf/MEf/MEf/ME/Dn7bgdu6rhtTcN22TZtXftgtYVvDlOVH3OKoOp2NYbqrI7Ee/4Rp+inM9a1cbhG9J9hlB/JFFG+AC1SJwKPoH4hi1JfJOZ8nDg8Y+kVRj1A0fhuj5+lIN98QMtkIQyUqEpbobj/ohtefjTHUhOmPrfPoYW8MMdvsME/K7hiOGQTGWXubw/4YhgeT6f4Y/ox1EBNifzttoG++cFLFEsXwc043gyGNUeuKdZJbXfhN8SxnlFc7v9ZFJ4We1/PcUQ6vRdqpxG5bPCRkBgxJQ2XYBxrkDIY0b0/pyBj2nU9GcNIJn3xeEHyIOEE9QWxnH6+y7B6Lr+NO5kEPnC7yblvIHmYwpD1XJGEZ1pJfXtfqKEvlGCrxNdudKI+NDTivSpBkHwxpPqU4eKm2AlEznl6aInbNxVuVpq0Iqe0vYvhSz+EV0mv6Xiagw0p5NHbhANnR7ibjT2JJiS4ZedImKPSvnnffHKYg70mlVCnn73Csx7lbxS2/Z9W1oQqsgOIY9++eKRN7iOek2kz1HMcq+zWMzmOcuK99y56PDob3p/2nx/MDvWMaw5FIuQg0EA+L+56edJp8shDNZ3yyc2ePDZcE9QhShQr23P13+CVuVy+tNkgcnsRwbKfA5eyNDXbFC8Jodjff0Tlyu0MnUhXlykL6H9WYxPDocLUs/nKoSzQv9ZiEKQzhsiuu/nigNiInYg6pGgKd5o4SmB/2lX9oJBBZnhdca4OdMcxbpSCIHhy1uwLNQeUpUB3uLhM8XS1VmHLLtzGGNg9ehf3muEkVE5MaMjQXShSHNFmO1VCCn0+E2hJDK3YHJyIFN2acmiNJyhp0FYXDJi5cPfErYjgIooXs8U0xnADC9xspp7aQXl4id4aWYKipYGbKkJi7cLnFFzAUc5cHZqG/U2ogU8mOPA2Kd327UzQKAUObiFuqhZ0x7F3CIhENyx5ox+iRFzO3zg267+JBetYChkMng6XU9U0xVFyJbaF0h6MHVjvGoAlwbCNx+dxTQmqPtobEfsHDyV3yHmzKS4vrCPUo5lVNYkyHbnUwfMXKJXJEbVw0Et8fAoZDcvdS3vOmGLJ3QUcSxdZZuGmFm/7YOolYzSW7Z+VwRXPgCo8MXq4l830viU81ftU7s4QhdtmxR10BrNlOLYXoj7iHR2E49r5XDgnF0PWn4Bf4BvVCik13xnR46RwuWES7YTg275K1s+Fmio5h2hOAjT3pzyVhfpMI2TGY/H56Kb1JQKHT4SQtJ5xTQaAQeSNwGu/b0kJSn6hVIY89zHG5gq7Us8lawJCWAi3E7nbEEPoGiPz0Oqm1CfBSLI0BxD2k4nHhIO5pPb0U6/5nvAJiuWZ++K1aQiRqbdQkXrj+dk8MwdUiGuCD2rbo9BowVDtiSBhSfjRPEbtawOOVHeJW0DK2pcD3xDkcrjzkMBxlirwS3pMNv6+NTwWYSJPUcaPjgCW3sVQQyMQcuhKGI0XIt4E3DruwyN7XE0WlmniB3OhbUaz5h+AKpVxKIuaXcohHh7rQkyDquDjLjqAYfl47O+WnGelU4Kf1yIGEha86nYznGQ+Nj+mqIYkL9Zc6eB1KRMtRWaP+4exSyzraITJTq75eKArtTL4xVd+OzrSMliuuGxXYAIsxvMrXuoShTjzwr+e8uhWgveKu0rVyyzC8xB/UDU1hOJZYizwD7qPpM6Ye19cTWtMLBcDQTCOuy+yeX+q+Voa4KoZcL0JmmhKOvsfrbPog1lv35o3Qu50cnUto7HMRiFrMUwgnwGfxsGDtMBnDESQ493qawn9KJYLjpPwJ4MyZD4q/+iimevdUD4WGTnUlWqSVZWQl3WZURB1JdJaywjXCQsCRuFfx4khWUbZLe56oDeI4DuTut3bZWtxGWqnmKorTA4ow0d8ztBZWX5I8XKygSS+y8y1rwU/w5eKhpKz9PjKdFq+pOLdX1mkcxG3zWqzRDqvydrtNVNDkr6JpZqPpf/AH/xvwH00y/rt1r2duAAAAAElFTkSuQmCC;" vertex="1" parent="1">
          <mxGeometry x="-24.999999999999996" y="-88" width="31" height="31" as="geometry" />
        </mxCell>
        <mxCell id="EXSZMAO2B3HAXZOh8qR--32" value="" style="shape=image;verticalLabelPosition=bottom;labelBackgroundColor=default;verticalAlign=top;aspect=fixed;imageAspect=0;image=data:image/png,iVBORw0KGgoAAAANSUhEUgAAAMAAAACZCAMAAABOg8UKAAAApVBMVEX///8Ae/8Adv/8/f8Fev8Af/8Fdf9Unv8Fff9Knf/p9P+32P/Q6P9zu//4+v+Rz/8BcP+Ew//a6/9Ypv+Kxv99uP8ujP9+vv8Dhv8mj/91tf+c0/9prv88lP+v0P/x+P/D3v+o2/+RwP+ly/95sP+hz/9lpP9EoP/j8P+b2f+m1f+ZyP8FhP/O4/+42f90q/+Lu/9Xrf8Da/+05P/T4f/S2f+Nr/9JO3mxAAAMa0lEQVR4nO1dC3equBaGECCCCqK8PEYQwaIUdXrO3P//0+4Ob1uxjgVtZ/zWWbOaEHB/2dmPPGA47oknnnjiiSee+ARCA4+W5T8JI61hPFqYW2D+9TLN8TLVvEdLcwNChCvMf6IKQhHzOTAxfzQBgsWfTeDHa+BJ4EFoEPihNkB+ugYIxqUGfkocOMnZjtPBS47BSzJ+lEhfQOzv/Rx7P+a+Zz6qNHBaFD4WvyGGq18ltN8Gl/7WyuJ2yXH76qq2Uh8t6nkkDimBX/ZQxGURjQww4gqiGT9a1rNYOwijDBgNVC6w9LKog9sJ+aKEpAvZqFD95wFYO5jPu5jHL4wAKouIERCri+2BDET31YdNFhiBwtOXBArkBK4KZOnC2T0qSnwgIP1zAspEROLCf8wg+jIBgfN2FhiQOF0+hEEHGjBGGIORkEFyV8kLfDBi6dSI8edGXPaBTn3v/s6IudECUuZG62LuRgugVjdqzEipJXt4fwKJRcQchJ/uuMDFRVGUIJAdxOqqaLcQ8Ke4GmfQ5g4MTlYLFXVZw+PiRhEENhoX0/e3FljTmgBd9i/+OzJff8TRqglIM6V3FQi+WmHvcd6+LqYCpzSLkOqpJ8XGrapSPM8zK/mBgdu/CtIJHRSg4LrVvwZVcaRy0aK6Oph53PGlKr3YcOugRu4zIQokek2A15PebcCXq3QN4ZWydiRU5mvMCzlSncwNuRBXbfkNmGvZFCM9KJ4X2zrfIHDoPSnyp9UPIhEIWFX/XQ5k4oHz/2qM9vMEEJ0UNu8bXobONdJK4GIkJgUBviy2EOBFxxERDCqRypvDITwcU6NjndxGgG8hADYwa9pA9pxcRQjpuo4wT4/drgZ0SwACiV0l4BXy0JwTIW+JclGgrgm0zAdQGwEWBz4wqNXhvP3vTkOInBpxncwVEhcEymJJQOCiAW5nAPJ3bcWMQJ6fwbDICFT5WqGB4mpBoGpbeKGiWGvAX7TLT/Sg891NiANSAZ3FAbEsSYhCMifWVxcQBxptszhQNX4rjRgimdgu/6FD8YsUzFgtRgXmms/tJ6MK25RTZ/OquPO4pL5o77jhtr44WmaPzLpk0KYCTPuYZxrDGvD4RgnST69RjMHFnBabt+a+UYjjNLBa5Edu0qEBK6mRwxPGBYSxMlSq0njsxYZSXx170HZct/WGjVvHAqPqq9FqsnDO9z7Glt2Z/ALn21TuHgNLJOSs/DwvOUmHM0whcnX0NUhni+ddKKSA4jzqcoasrF4vhJvOwHJXSdex4y4SsN8OLdjb3YUA//r66sgbOUz8juOvF92DgDjQdqsVJNKs67t1oHchgJ1IUZSi6zsOAPchMOpvhfceNgBxS+htn8BbvX5M2zuGvulxPixEtG8CyI16lJ9Tp9LnMnwFGM+7nXm9I5Au9M+F+Ir8ZKr2uCgncMqhXwI80XreZOqZAB74/crPHcU+/agkrsY9L+uuaI8EsNinBeeIbYTbUvcvAy38vuVnezG9qQC7/S9KQyR46Y2AOOt9AHHlbmj3IFiy07ts7iVOP9kEvocBMPiX1gBvB1rs73RWxdP6SKnxYHcP4TOkctfRGMb/y67TyftFCCbpWAUYv6zvebzAn3dsxni6u+9ZrcjtUgUYL+43/nPEq9cO5UeTe/mfEgJnLEhH0QwjN0zvfdYP/MVv2kkwgKBOzYcc9PN2XZgBxh2v3V4NgfPYxOCLowijQTS8n/v/wMBFtysBqCNdnC/vkX62MtgN8M2GAINfpLNhuT/2GIz389fbGADx15dfBve4k8YFUo3eNIwka7HzHzd6GlDUuahfnVcwm8cIxv5o/aDzuWcQB7KTvSHziUdim3hsc55Y8jzJ1q6+BQUmRJrMrewowUUCrIEo0sUsSJX+Vs9vADskMNwlU4dIrXGBgPgSsQbz3TI1vo/oJVh/evEysV/Imw6Q6o1USWIVb2/iYKElSz8eF+2/G3KRUjVJzIU8oJS6lmW5rgt/yfLCDKL12jdO2n475GIJnmf4yygJCiRJlB/aE06afVdciqk/5mMG58T8KbI/8cQTTzzxxBNP/NvwD5LIZ8rWB8bz6bWvZRrT4PNGN+M27QrcmurBlWvfsjO46aDSULviMw2+fdNL0gIXOGhx5Yc4HGytbyAw1sztp2+uKr/nk1uW8QQucfRrCVi8ewsBYWJrnxBgq8jm5JZNkPsR+ATe6j9GoF4DqQmcWxc5EbdBQPjYpFl1UlcMoZN3o08iCisUBK79UiO7Q4ljdvg6KAnkdadfpinb5ZdrAuz17trklLyJUJZYAyV/lMC900CbcCcauIJBHJgUYK6FxCo1ECcLtsx2WI/rbjaOc9YuyPxgSYD9O8qDYd5kGGa3Jdk+Kjt0Cr5WDWXq0k2Y90xGwEt93x+Wog3ThsthBUZAYY3S1L/iTKY6lyS2lKy7mw0pCKhs6RZjBHXlE7y1K+btxNCoCDChZRHzm0xBx4GEstvEY7YVGb4hOaR69sEDXWZVwsS0fdXWAFv2riQMkeF2u6v62dhuVU5ZmbaXJlqG6DOHGlCJ8MhxsrV8Xlqwj+kcXfbWc1439bOneyF7dY84DjtqKI8rDcSBxRNEWVBT5oQtqTs8COywA92CqRNMEOYdRyT6PM4JmLOZadsmQNszAfyZnVQE0tloxzRgJjPWAtrNZsOLo0h14ddk9Y+xpmyxnGmAY68Z0oPq/0lk0ESuk4SJeVD//hO4li4qQAACGdxOQUKyYV8u4EKeEBr6f/vmABEeGAihzvPEocGfv9NQ9rOROGGia0m0TDQYTXv2npQ2qQkAmygjYNuzX9EySjTTvhD5BC6eS1jOg7sSYZwRiClGblF3FAkOWc9QjN18mygOwkBgGphxRjiQYNSts3qgiOV8K2Yog9zrjAARF81hzAjYQcY3Xs+YbOcJ2PYk+3KPYPyybfvCJ5aOOnFULjc5LtCz/g4cTMs6ISTZ4eCQx4PsAxHsJvZkGDhrdYGwlFkJDGVvLqHqxfiYIkn22BASp1zTUQIBe5YWhWQyirwWDcz88lGJrbVnXeMNQhuhoQ5pHo9DXarfxTQsXk84BZQSVIvq7J8lYmqB9ciso1i94RAceXGOceIgOeVMHVP/NJZMzNGqfIwxM1dKC4HiZUSgnmrmr1ZDFkC8+osO0N36wounyGpQPmA95PwBeieJJfKYYB6FJa2lyPN0UWAuEwxDzNR5evpeOWigUgAnzGwtPk9gtq96S0hMrTXJNyh2KsEE7ghxwPMpdhs3JDo6gK2iQfqOALhLB/PisWCwBmeabTBlAIfrMAJk867HJkzm8gcjs5VAWt8TXSDAhoZfPZw7OrrJCFiNG45SQeC9BrATqLJE3HVesWSn3J0aIvhf0MAZAkYrAaEg8PtqAgLl9Xpm5dm6M+eMObLqLvEos4FURs5p7gZuNMiPlNLcYfkwpo7rYM2Q7Tf5mRc6S6AsFARG9QlqVQMCwpINoapVcIHA+KBjt1JpSpEbwM9ibCllngNxAtwU0JDMk3M+RSCDOICmWZeCMsm7WeZ1BJSJvS0zSKixIxYazKCynaHGTP08oClzL3lIB4OAmBBnwUk8FL5lyGJCnDl5Ehbe1ljWqQSXUCw5jIFwwMz35wsbhprlDVcR4BJ7FBXp33BrT+BvQ7MnflEVz8xJ62tOmZ8n0oFFKE89SASzAe0twH1nwdVTKXgTNp48sEcrC0leIvObOpXgAouIlCksfkXEnbOYEx+pc7yeQAziRlnUSiF1sJm0KoSLVR7IEpuZfTsUCgzkzXR6cCQi5a9SG2CbknyYLg4W5ARh3jdTYEWni6kMeYajNNLpOSZEVrLhhIjjQpMN+Nfp1QTYiLEnx91+n2iQZ2QExrsRxGKoirYms4B2QAoGySRCosi+a5LnkKDCDSRzEiRgCDnHYugP5+A32ReokAQ6aU7qQwmLIft7L0NkFkWSf70wI4A/90JCZrqjyWQyMqHj7exIqbKCrI9VQf9fkj+bQgeUgtuzqLwup02QA1FqOY5L8xQsg3fM28kb5nY2TuFXobHpuMc8GodZE5ceci+YOE747vcibVtPWlfar7x7/Dx3nix9bZsHUaFIp4PosxkBcyAqZIiBLzTr4qwuHTenRF6jLp6vq3olCKp8fg1N1kbVN8dT/wFVauUS80J5I/u6qsfOLyjvq7qCcOav1iYd/tpVrc9Mnz+pO7nW+Pv0rjNz8g9T+MaN7y4//+8LTzzxxBNPPPHEE098N/wfV9Y70/EhmwsAAAAASUVORK5CYII=;" vertex="1" parent="1">
          <mxGeometry x="249" y="-81" width="109.18" height="87" as="geometry" />
        </mxCell>
        <mxCell id="EXSZMAO2B3HAXZOh8qR--37" value="" style="endArrow=classic;html=1;rounded=0;fontSize=12;startSize=8;endSize=8;curved=1;" edge="1" parent="1">
          <mxGeometry relative="1" as="geometry">
            <mxPoint x="136" y="-39.309999999999995" as="sourcePoint" />
            <mxPoint x="236" y="-39.309999999999995" as="targetPoint" />
          </mxGeometry>
        </mxCell>
        <mxCell id="EXSZMAO2B3HAXZOh8qR--38" value="Push" style="edgeLabel;resizable=0;html=1;fontSize=12;;align=center;verticalAlign=middle;" connectable="0" vertex="1" parent="EXSZMAO2B3HAXZOh8qR--37">
          <mxGeometry relative="1" as="geometry">
            <mxPoint x="4" y="3" as="offset" />
          </mxGeometry>
        </mxCell>
        <mxCell id="EXSZMAO2B3HAXZOh8qR--39" value="" style="endArrow=classic;html=1;rounded=0;fontSize=12;startSize=8;endSize=8;curved=1;" edge="1" parent="1">
          <mxGeometry relative="1" as="geometry">
            <mxPoint x="-63.5" y="-39.309999999999995" as="sourcePoint" />
            <mxPoint x="36.5" y="-39.309999999999995" as="targetPoint" />
          </mxGeometry>
        </mxCell>
        <mxCell id="EXSZMAO2B3HAXZOh8qR--40" value="Image Build" style="edgeLabel;resizable=0;html=1;fontSize=12;;align=center;verticalAlign=middle;" connectable="0" vertex="1" parent="EXSZMAO2B3HAXZOh8qR--39">
          <mxGeometry relative="1" as="geometry" />
        </mxCell>
        <mxCell id="EXSZMAO2B3HAXZOh8qR--42" value="&lt;font style=&quot;font-size: 13px;&quot;&gt;EC2&lt;/font&gt;" style="text;html=1;align=center;verticalAlign=middle;resizable=0;points=[];autosize=1;strokeColor=none;fillColor=none;fontSize=16;" vertex="1" parent="1">
          <mxGeometry x="-165" y="-271" width="43" height="31" as="geometry" />
        </mxCell>
        <mxCell id="EXSZMAO2B3HAXZOh8qR--43" value="" style="whiteSpace=wrap;html=1;aspect=fixed;" vertex="1" parent="1">
          <mxGeometry x="465.15" y="-369" width="623.64" height="623.64" as="geometry" />
        </mxCell>
        <mxCell id="EXSZMAO2B3HAXZOh8qR--44" value="" style="outlineConnect=0;dashed=0;verticalLabelPosition=bottom;verticalAlign=top;align=center;html=1;shape=mxgraph.aws3.ec2;fillColor=#F58534;gradientColor=none;" vertex="1" parent="1">
          <mxGeometry x="429" y="-400" width="78" height="85" as="geometry" />
        </mxCell>
        <mxCell id="EXSZMAO2B3HAXZOh8qR--45" value="" style="endArrow=classic;html=1;rounded=0;fontSize=12;startSize=8;endSize=8;curved=1;" edge="1" parent="1">
          <mxGeometry relative="1" as="geometry">
            <mxPoint x="378" y="-38.029999999999994" as="sourcePoint" />
            <mxPoint x="487" y="-38" as="targetPoint" />
          </mxGeometry>
        </mxCell>
        <mxCell id="EXSZMAO2B3HAXZOh8qR--46" value="Pull" style="edgeLabel;resizable=0;html=1;fontSize=12;;align=center;verticalAlign=middle;" connectable="0" vertex="1" parent="EXSZMAO2B3HAXZOh8qR--45">
          <mxGeometry relative="1" as="geometry" />
        </mxCell>
        <mxCell id="EXSZMAO2B3HAXZOh8qR--47" value="&lt;font style=&quot;font-size: 13px;&quot;&gt;EC2&lt;/font&gt;" style="text;html=1;align=center;verticalAlign=middle;resizable=0;points=[];autosize=1;strokeColor=none;fillColor=none;fontSize=16;" vertex="1" parent="1">
          <mxGeometry x="446.5" y="-431" width="43" height="31" as="geometry" />
        </mxCell>
        <mxCell id="EXSZMAO2B3HAXZOh8qR--48" value="" style="image;sketch=0;aspect=fixed;html=1;points=[];align=center;fontSize=12;image=img/lib/mscae/Docker.svg;" vertex="1" parent="1">
          <mxGeometry x="527" y="-70" width="68.29" height="56" as="geometry" />
        </mxCell>
        <mxCell id="EXSZMAO2B3HAXZOh8qR--50" value="" style="shape=image;verticalLabelPosition=bottom;labelBackgroundColor=default;verticalAlign=top;aspect=fixed;imageAspect=0;image=https://velog.velcdn.com/images/keembogeul/post/10872e1d-af06-4e5a-a8dd-f5daf5191570/image.png;" vertex="1" parent="1">
          <mxGeometry x="895.5" y="-106" width="162.65" height="62" as="geometry" />
        </mxCell>
        <mxCell id="EXSZMAO2B3HAXZOh8qR--56" value="" style="shape=image;verticalLabelPosition=bottom;labelBackgroundColor=default;verticalAlign=top;aspect=fixed;imageAspect=0;image=data:image/png,iVBORw0KGgoAAAANSUhEUgAAAlgAAAJYCAYAAAC+ZpjcAAAAIGNIUk0AAHomAACAhAAA+gAAAIDoAAB1MAAA6mAAADqYAAAXcJy6UTwAAAAEZ0FNQQAAsY58+1GTAAAAAXNSR0IArs4c6QAAAAZiS0dEAP8A/wD/oL2nkwAAAAlwSFlzAAAOxAAADsQBlSsOGwAAIABJREFUeNrt3Q14FdW97/GVgJxY0SKiRo0aNVpAqqlGRcUSBQUFDVQsQemVHvGAhRZ4wANe8CE8hAoVruGIj9Ajt3KFA1QsoHAAJQUqWqqoqFFBo0aNGisqxaippuSu/2S2J6Z52S9rzZ6X76fPNFFh9p41a9b8Zs2aNUoBAAAAAAAAAAAAAAAAAAAAAAAAAAAAAAAAAAAAAAAAAAAAAAAAAAAAAAAAAAAAAAAAAAAAAAAAAAAAAAAAAAAAAAAAAAAAAAAAAAAAAAAAAAAAAAAAAAAAAAAAAAAAAAAAAAAAAAAAAAAAAAAAAAAAAAAAAAAAAAAAAAAAAAAAAAAAAAAAAAAAAAAAAAAAAAAAAAAAAAAAAAAAAAAAAAAAAAAAAAAAAAAAAAAAAAAAAAAAAAAAAAAAAAAAAAAAAAAAAAAAAAAAAAAAAAAAAAAAAAAAAAAAAAAAAAAAAAAAAAAAAAAAAJCMDIoAQdLQ0NBN/+ill7P1kqeXXL10cX8K+e+d9bJfL7V6qddLtV7q9FLZZNmXkZFRSYkCVo/XLP0j2z0+j3d/z2nyM/a7HK81zZYq9+f78lMfr/spURCwAHMNtDTA/fTSXy+93VBligSwnXrZrpcdetmtG/F6Sh1I6ZjN1z+u18tgveQbXLUErM16WaeXLfpYraW0QcACEmugJUQN18swww10PIFrlSy68S5nTwBxHa8d9Y++ehniLjkefKz0SG91w9Z6erdAwALabqTlqnesXgp98JWq3bC1hFuJQIvHa5EbqKSnqkuav5L0RG/Qy2p9vFaxh0DAAg11Y0N9k15mKLO3/0ypdxvuWbrh3sMeA8dsg/Qul/r4eF2klzn0aoGABYKVPxvqlmx1g9ZO9iAieMwW6h/3KG9v2yfrgF7K9DJPH6917D0QsECwCoblerldN9w17FFE4JiVQHWXXgYG8OvXuG3NMh5gAQELYW6oZfDrQ8ofY6xMXCGX6OU+Gm6E+HidrZeReukY8M3Zq5dp+lhdz54FAQtha6xl3MZilf7BsKbt1ssNDKxFyI7XcfrHfL1khWzT5Db/CMZngYCFMDTUEqjuda+Cw0p6s0brRvsR9jgCfrxKT9X9Up9DvJlyMXStPl4r2OMgYCGojXUf1XhLMDcimyw9dJMYVIuAHq/yFoSHVThu4bdH5rwr1sfqRvY8bOlAEcBSYy23BB/VS9cIbXaBnJxKSkoenjVr1tfUAgToeJXXT21TwXhC0IROerlRH6v1+lh9khoAG+jBgo3GeoJqfEQ6quTWw5U8ZYiAHK+DVOOkup0jWgTyVPBtvHoHptGDBcKVecfpZZi+Ot6ir44ZTAs/H6/TVeOt7awIF8M5erlKH6+P6eOVkAUCFnzbWP+GknB0cUPWRkIWfHq8yhQMJXrJpDTUie7xupqQBQIW/NZYywzP/5uS+I7OhCz49HiVyX7LKIl/uijqrY/Xh/TxeojiQKq4coGJxlrmzJlISbQoWy/bdBl1pyjgk+NVHsZ4gJJokTz5fD/FABMY5I5UG+ve+oc8hePpTM/1h+pVxWcVat+BfWrPJ3vU3gN71YGvDzj/rerzKudnx4yOKvfI3O8sFx13kco7Ki1v6JEB75dnZGTspdYgjcerBP4X3ODvqd0f71bvf/G+qvmqRtV8WeMcp9VfVDv/3C2rm8o+PFtlfy/725+ndj5VFRxboDoflpax9xP1sbqQGgMCFtLZWD+rlxwvPq/2m1q1/p31as1ba9Tm9zarun8kN92UBK2BJw9UA3MGqn4n9fOyASdkIZ3Ha5Z7MVTgxefJ8bnjwx3O8brh3Q1OqEpUx8yOqvCEQjUkd4gqyi1SOUfkeFVc8vqrwfpY3ULNAQELXjfW0mO1SS/9bX/W9g+2q4UVC1MKVa3p0qmLGt19tBp39jgneBGyEOJjVib9tf5GhfVV69XyyuXO8SoXRSZJj9aw04apMT3HOMeu7Ws6vVzAsQoCFrxurO/SP6bZDlaznp/l/LRNrpTlKnn6j6ar/GOsz7VIyILXx6s84Vtq+3i945k71K6/7rK+PRKupuVPUxN+OEFldbA6w4QcoxfrY/UAtQiJ4ilCJNNYD1CNc+dYIWOqRvxxhJr13Kxvx1PZdqjhkHr1s1fV0n1L1Wd//0z1ye6jOnXoZOvjeLoQXh6vMk7y/ylLDzVVfFqhxjw5xglXMqbKC9KTvfX9rWrZ68vUMVnHqF5H91KZGVY2T14flKeP04epSSBgwXZjLbcGH3UbHuMWvLRADS8frt46+FZatk+CllyBr3xzpTrz+2eqs75/FiELgSbTDugfp9sIOb98+pdOuJKLk3Q4+M1Bta5qnXrsncdU7+N7O4PjLejpThpcTW0CAQs2G+vb9I//ZXq9cuVb9HiR+u1rv3VCTrrJE4n/Vflf6pO6T9RVOVfZujomZMH2BVGRsnArXwasX73paifc+OF4lScRV1SuUD/o8gPV8+ieNj5CerGWUaNAwIKtxlpGlUrvldFBDztrdqrLHr3MmWrBb575+Bn1wv4X1HWnXmfrliEhC7aOV+lt/oMy3Nss0y303dDXd8fr14e+Vr9/6/cqQ/+v8MRC06vP1cfoHn2M7qNmIV5MNIpEzFSNsx0bDVdyJRybw8qP5BFzCYDJPGYeJyYjhQ0368VonZJeoss3XG7zWEhZyXMlakT5CONPMGpz3dAKxIUeLMR7NSyzcxodKLuleosq2lJkoyE0Tm5BrH5ztbrmlGucSREtoCcLJo9X6WV+1K1XRix5bYn61x3/6vQU+Z1MQvxkzZPqxrwbnSeEDZED/119fL5ADUM86MFCvGRaBmMtVfn75Wrw5sGBCFcxMk5Mrt4t3hqhJwumTFYGZ2uXKRjGPzU+UAUgveO3/ulW06stdcMrQMCCkathaaiHmAwqI7eNdF53EzRya4SQBZ8fr9LTMsXU+ioPVqobtt4QyON1+RvL1bw980wfn5OpZSBgwZSblKHeK2mkhz4+1NdjOAhZCLgJytBYSelhvnbztWp/XXDvWs/YPUNtfHejyVVOoRcLBCyYMtrUimTeHHkKKegIWfCxYlMrksHifny6N9GLuuLyYqcnzhAJrwOoZiBgISX6BN9HGXoSScZELH51cWjKhpAFHx6vUlfyTKzrkbcfcZ6gDQPpiTM8HmsItQ0ELKTqFlMrmvTnSaErHEIWfOZ6EyuRXp9pf5kWqoKRgfrycI0hg5myAQQspHI17EwdYGJd8s6wMNwaJGTB5waaWIlMyWDwlppvTNllbOy/PEjQh+oGAhaS1U8ZmEdH3lk27ZlpoS4oQhZ8cEGUY+KkL5P+lr5QGsoykhfJy8WeIUXUOhCwkCwjV2gyQWeQnxokZCEgjAy8XvjywlAfrzLTu1z0GcA4LBCwkLTeJlbywN4HIlNghCykUcpPD8rYq0WvLAp1IVV9XuUM4DcgVx+H+VQ7ELCQEHcAZ0Gq65GgIU8PRgkhC2k4XuVWfso9znKsBnnOq3htfm+zqVUNovaBgIVESbhKeTK9pXuXRrLwCFnw2AATx+v6d9ZHorDWVa0zNTP9QKoeCFhI1EUmVhKWeXQIWfA5I+8d3PBONI5XmRdrx4c7TKwqh6oHAhYSlfLtBrnVEPRZoAlZiErAkifswjg1Q2ukF8uAXKoeCFjwvOF4quYpSpGQBW+k3JNi+H19UQlYMv4tm+oHAhYS0S3VFez66y5KkZCFgASsik8rIlVg1V9UO3N+GTr2AAIWvAtYYZ25nZAFH0r5JF/zVU0kj0kDjqf6gYCFRKQ8g3sUG2xCFoIasGR+KAJWUhjoDgIW4qNPzrkm1iNP6oCQBevHq8xZ181EvYyad2rfIWCBgAVPZZlYSRSviAlZSIOUT/AyFsnQ62MCRcZhEbBAwIKXGLRJyEKEAlYUe68MbjftJQhYACELIdSRgJUcQ8MYOlMFQcACCFkAAAIWQMgiZAEAAQsAIQsACFgUAUDIAgAQsABCFiELAAhYAAhZAEDAAkDIAgAQsABCFiELAAhYAAhZAEDAAkDIAgAQsABCFiELAAhYAAhZAEDAAhDekNWb0gYAAhZAyDIbsp7QIasPpQ0ABCyAkGVOZ71sImQBAAELIGQRsgCAgAWAkAUABCwAhCwAAAELIGQRsgCAgAWAkAUABCwAhCwAAAELIGQRsgCAgAWAkAUABCwAhCwAIGABIGQRsgCAgAWAkAUABCwAhCwAIGABIGQRsgCAgAWAkAUABCwAhCwAIGABIGQRsgCAgAWAkAUABCwAhCwAIGABCHjIkp+ELAAgYAEgZAEAAQuAf8ltQkIWABCwABCyAICABYCQRcgCQMACQMgiZAEAAQsAIQsACFgACFmELAAELACELEIWABCwABCyAICABYCQBQAELACELEIWABCwABCyAICABYCQBQAELACELEIWAAIWABCyAICABYCQBQAELACELEIWAAIWABCyAICABYCQBQAELACELEIWAAIWABCyAICABYCQBQAELACELEIWAAIWABCyABCwAICQBQAELACELEIWAAIWABCyABCwAICQBQAELACELEIWAAIWAEIWIQsAAQsACFkAQMACQMgiZAEgYAEgZBGyABCwAICQBQAELACELEIWAAIWAEIWIQsAAQsACFkACFgAQMgCAAIWAEIWIQsAAQsIv86HdaYQCFkAQMACTCo4tkCVXVJGQRCyABCwAJg0odcEQhYhCwABCwAhi5BFyAJAwAIIWYQsQhYAAhZAyAIhCwABCwAhi5BFyAJAwAIIWYQsQhYAAhZAyAIhCwABCwAhi5BFyAJAwAIIWYQsQhYAAhZAyAIhCwABCwAhi5AFAAQsgJBFyCJkASBgAYQsELIAELAAELIIWQAIWAAIWYQsQhYAAhZAyAIhCwABCwAhi5AFgIAFgJBFyCJkASBgAYQsELIAELAAELIIWQAIWAAIWYQsQhYAAhZAyAIhCwABCwAhi5AFgIAFgJBFyCJkASBgAYQsELIAELAAELIIWQAIWAAIWYQsQhZAwAJAyAIhCwABCyBkEbIIWQAIWAAIWYQsQhZAwAJAyCJkEbIAELAAQhYIWQAIWAAIWYQsQhZAwAJAyCJkEbIAELAAQhYIWQAIWAAIWYQsQhZAwAJAyCJkEbIAELAAQhYIWQAIWAAIWYQsAAQsAIQsQhYhCyBgAUi3ar2sIWQRsghZAAELgDn1ehlByCJkEbIAAhYAgzIyMghZhCxCFkDAAkDIQjpCll4upbQBAhYAQhYhy2zIKqWkAQIWAEIWIQsAAQsAIQuELAAELICQRcgiZAEgYAEgZBGyABCwABCyQMgCQMACCFmELEIWAAIWAEIWIQsAAQsAIQuELAAELICQRcgiZAEgYAEgZBGyABCwABCyQMgCCFgACFmELEIWAAIWAEIWIQsAAQsAIQuELICABYCQRcgiZAEgYAEgZBGyABCwABCyQMgCCFgACFmELEIWAAIWQMgiZBGyABCwABCyQMgCCFgACFmELEIWQMCiCABCFiGLkAWAgAWAkEXIImQBBCwAhCwQsgACFgBCFiGLkAWAgAWAkEXIImQBBCwAhCwQsgACFgBCFiGLkAWAgAWAkEXIAkDAAkDIAiELIGABIGQRsghZAAhYAAhZhCwABCwAhCwQsgACFgBCFiGLkAUQsACAkEXIAkDAAkDIAiELIGABIGQRsghZAAELAAhZhCwABCwAhCwQsgACFgBCFiEr3SHro68+ojAAAhYAQhZMhqzRfxpNQQAELACELJhU+00thQAQsAAQsgCAgAWAkEXIAkDAAgBCFgAQsABEMGTNOG8GhQ2AgAWAkGXS7ILZauIPJ1LYAAhYAAhZJt1z8T2ELAAELACELEIWAAIWABCyAICABYCQBQAELACELEIWAAIWABCyAICABYCQBQAELACELEIWAAIWABCyAICABYCQBQAELACELEIWAAIWABCyABCwAICQBQAELACELEIWAAIWABCyABCwAICQBQAELACELEIWAAIWABCyABCwAICQBQAELACELEIWAAIWABCyABCwAICQBYCABQCELEIWAAIWABCyABCwAICQBYCABQCELEIWAAIWAEIWIQsAAQsACFkACFgAQMgiZAEgYAEgZBGyABCwAICQBYCABQCELAAgYAEgZBGyABCwAICQBYCABQCELAAELAAgZBGyABCwAICQBYCABQCELAAELAAgZBGyABCwAICQBYCABQCELAAELAAgZBGyABCwAICQBYCABQCELAAELAAgZBGyABCwAICQBYCABQCELAAELAAgZBGyAAIWAICQBYCABQCELAAELAAgZBGyAAIWAICQBYCABQCELAAELAAgZBGyAAIWABCyCFkACFgAQMgCQMACAEIWIQsgYAEAIYuQBYCABQCELAAELAAgZAEgYAEAIYuQBRCwAACELAAELAAgZAEgYAEAIYuQBRCwAACELAAELAAgZAEgYAEAIYuQBRCwAACELAAELMCyrA5ZJlZTRUkSsghZ9nU+rLOJ1dRRkiBgwdMTfJdOXSJXcDlH5JhYTQ1VkJBFyLIv+3vZHK8gYMFTRhoMQ40XAQuELEKWn4/XKkoSBCzE2/hLl/cBAhYBC4QsjleOVxCwYFbKjUZu59zIFRq3HEDICo7jDz/exGqqKUkQsOBpoxHFHixDDfY7VD9CFiErMBdEH1GSIGDB04DVq2uvSBVYx8yOqnuX7iZWRQ8WIYuQZVm3rG7OwvEKAhYCF7AG5AxwQkdUFJ5QaOqxbxpsQhYhy7IhuUNM7TduEYKABW9P8nJ1KKGDBjshdbrBPkD1I2QRsuwafMpgX1yIgoAFAlZyjdipgyNTYEW5RSZWU0XVI2QRsuySnuYBJw/wTTsJAhaipVwv9SmHjlOLIlFYBccWmHrkezNVD4Qsu/qf1N/UWxc4XkHAQsINvNym2p7qenKPzFX5x+SHvrxMjefQNlD7QMgKzPG6kZoKAhaSsc7ESsLegMuV8C0/uMXEqvbrZQfVDoQse2RqhutPu97Eqqr1/tlFLQUBC8lYb2IlN+XdFOopG6acO8XUfDqb3RMqQMiyZMaPZph62pfbgyBgIemGXZ6Q2Z3qemSqhrkXzg1lGcmTkpPPmWxqdeuodSBk2ZN3VJ4a02OMqdWtomaCgIW0n/QHnTJIFZ5YGL6r4fNmqC6duphYlbz/cQvVDYQse+ZeNNfU3Hy1enmKWgkCFlJhbBDn3RfdHbqr4XE9x5la3VZ9Aq2luoGQZUfv43qbGnvlXHjqfVFHjQQBC6k06Hv0j0oT65KpDMafPT4U5SJXwWWXlJmcqZ7bgyBkWSIPotx76b0mV8n4KxCw4K+TvzTcYbhVWFpQ6tz2NESuhNdTzUDIsuOBvg84F3gcryBgwW8WqMYxBymTHp+H+z/s3F4LqlFnjVJT86eaXOVifcLcTzUDIcs8GScpTzIbVMbtfBCwYKohl9dBzDe1Pnnybu1Va009Ku0pGcdx/2X3m1ylTOg6h1oGQpZ58r7BmefNNH28zqPmgYAFk6QXy9h7t2RerFX9Vpkcw2SdvApHgqGhV2zEzKf3CoQs86SNWdlvpek2poSXsYOABdONuHSJl5pcp4xh2nz1ZlPTHFgl4zeeHfqsqQlFY2rc4AoEImTN7z0/EOUh7xp88ronTfeSV+llCbUN8epAESDuS7eSkhf0jxv10tXUOk8/6nTnvWDl75er/XX+7MgZeeZIZ9xY16yuplc9Xp8Yn6NmwYRZs2Yd0sfoWv1rT3cx7pLjL1Fnfv9M9eg7j6pDDYd8WQ7ypPJDlz+kvtfxe6ZXPZHjFQQs2GzAP9C//tTkemVMlgwcf+GTF1TlwUpfbXPpBaXOlXunDp1Mr3qvXm6TMqVmIUgh65yu56ircq5yLooOfO2fu2VyK/C3l/1WTT9vusrMMH5zZo8OV7dRw0DAgs0G/DXdgA/Uv+aYXK8EmOIzilWD/t/THz2d9qtjuRUoY8Ru6X6LrY8YrRvs16hRCGLIkvGIo34wSr158E316mevpn2b5alk6WX+yWk/sfURI3W5vk3tAgELVunG+039Y5Tp9cpV5xUnXqFuzLtRffzVx6riswrPt03Gg03Ln6YevvJh1fPonrY+ZrsOV3dQkxDkkCUPe/z09J+qi4+/WO36aJf69O+fer6d0vv96wt/rZb2Xaryvm9t6hd5y8IsahUIWPCi8a7Sjbf8Wmhj/V3/pasadvowZ2zWvr/tU1WfV1nfJrm98Ktev3KeOhp86mCbTzfKwPardRkepCYh6CFLSO/RL3r+Qh2TdYzae2CvJ7cNJdxN+9E053gtPKHQ9vE6QJcl814hYRkUAZLV0NAgjfcQ25+zpXqLenDfg2rDuxtU7Tdm2zm51SFhbtzZ47yY/FRmgL5cXw3vovbAw+NU0sdKvQyz/Vn1h+rVisoV6oG9D6idNTuthLnivGLnHaCGn+jleAUBC75quOUZ6Cf1ku/F59X9o07t+HCHWvPWGrX5vc2q+ovqpNaTf0y+0ztWlFvk/O6hUbqxXkbNQZhDVowcn8teX6a2vr/VuYUox28y+mT3UQNPHqiGnzHc6zdAjNTH6wpqDwhYSFfDLYPdn9VLttefvfvj3c4gW2nIa76sUTVf1Ti/V9dWO/PfyBVu9uHZKvfI3G9/P//Y851eqzSYy7grRC1kNb04kpD1ymevOE8KV/6tUtXW1zrHrfw3GUslx6ccp3J8yiK/n9/tfC96qlpSqo/XO6k18GXAcg/mXno5Vy9y2ZHjLk1vlksXhNzzkWfz5bH1V3SlrmK3pFzuuW5Zn+oGn9gikxHWNFnel32gy7wyxc/so39sa7Zv8T/ec8sn3VMyVLt1oNI91vYEqF7L9Pnd9XJ2k/Yky/0ZazP2u+3IPtX4WH2tx9+xm/vdTnW/W9Ny/0iOuXTP2p/OkBUgG/Qy1J281URbfEYrF6BSL95Jtf1Fi2Wf65b9qa2Uu5z7KlPdx54GLLeBKXIPXjnpJjONrjSW21XjjMRbbBdASCqTNOYDVON4qMF66ZbgKmrcRmWdXsp1mdcl8R1u1j8eZG8ESq27z5e7+73eZ/Vawsr1eunvtieJvKNItmW325asthEm9ffrrX/0VY0Pe8jvXeL8XrE2boPbxtV5XK6ErNbJo8sXJxPO3SETg9y6Kkt+AnW1wq0T291jkUH1iZ//YsdhfpxtRb17QbazSbkbvQDKMLSBsmGT9TLQcC/Gfrfxv4+U32K5D9c/it1yN/WCPDmwN0u56zJfn+D3uVv/mMKeCSQJICWJ7nNLjeVNqnEakD4GVy3tx2K9LE3lXXJu6JOLiZHuFbKJ422rG3TXe/WeO0JWq+ebixM517jlOMitr6ba4Tq3DZYL1o10MrRa9v3ccpeOBRPvRKp3L3qWu8diyuWekeIGSlq8S1l6XL/ZhstGzyFofVux5iv7g8vl6Zk7dJlvT+C7yavrSzj8A0tO9Ld6fSvLDVZj9DJN2R3PV+sGrTmJhBn9/Qr0j+mqsYfY1q1w+T5z9bLQi14tNxzco5fxVHsnXPXX5f5iAmU3Ti8TDQXtti4MpK1f5nVPp0/PfR3dC7CJls9/VXop08uSVMo9I8mNzHUPzCEel2+dW9nmRLGy6XLPd8u90OOP3uAGrYo4v6f0rD1g6KoC3pMxClfHu78N1GvpAVhk+UTVUpiZ4Tag9e20dbNVY4+Vl+Uv322FF70Xehtnu58XdXJSnabLfHUc7Zu8+D7P4+82Md09zD7oWJB2orvHx+KU9uqEsYDlVi65AuyS5gPhBr3RuyOU2u/Xy+g0fo16t3LfHk+j74bBx5ThV+rAM7VuyNppsV53c+t1Om9TSS/tiJYertHfT3oo5qbxQkEC7m0290GTbZ3gXrzyoErjBaWUe3WzMspx6+tgv323kJ//pJ24VzUOh0kXuWV7a6LlnpHARnZxK1exT8q93k2WC0NeueR2iUzo2dsnX2mrG24PBPC7IzGyjy+wcVveveW21icBXMLk6NhVqtugy/ik/j5p58bq77bUg7ZGBgrLUIxuVH2n7hfrct/iw7KR25kjY98t5Oe/Pu6xmBPEcs+IcyPlRCmPmXf34T6Q3rRfhnEgoI97geSEe60u871xbEOWG8xH0WYHkgx+v8zkU026TtziHrd+6y0p0ctq95jL89l386Sdc3tp5ITWh6rfeBHv1tO5PqyvM3R9mBPicOXXXlXp2FlgJGD5PFzFyJQOI8IUsnS5F7lXTH4dxyQn3GHxpnm9PZN92kihfcYmXXQbzTKfn1T9Wke3uu2c1QcQ3CEJMi5rGlXf92TYxqSwdTDoOniXz+tfmS7zSe39oQ7tbGR3N1zl+Xx/OC8zlRebygtOQ1C5pDtanubK8vHX7KSXYl3m23SZv9veH9Z/5s/6z8qV8XGqcQJaBMeFet+t0PvwQIr1Wp7C+43PtzXTx9/tdL1cp/fFMr0vvrb1IdKG6qVcf45cPEkv+okcAv49NsN07nPbCXmQy+/T/fTWZd5Zl/kTSQUsd9K0He5BHQShCFluqN3q83DV9GR0jS7zR+I5+eo/86leHtF/fqP+x7OUt0+NIXnSo9FF77v1KdRruS1YRlGmTMYAnaePodW22zm9/mr9Ob/Tv36gEp/oFZz7kg1XEwPydS/RZV6ly/zFhAOWHMCyAiqap5VLHiR4ImBXjBLEC90ejriuqvWf+0Avy/Tf2e3us2wFv+slPZASkpOo19Ij+1/K371DQSJ3FDpJL5PtD3J7s57T+14G2Uuvdb7iNj/nPsJVzGBd5k/IxUjcAUtv6FQV3MnnAlnR3HEP0kNwYQDLXAJST13eCc0Vov/8G27D/ZZe5Kmyo2gnfUvC0VGJ9mK5g6YfV8yJZlqf9q6eDQetL/WyRX/mfapxPsJ4X0cCzn1hDVexdnGw26N8sN2A5c7OvjzgV5uBq2j6u8og4n8NcJlh0lFBAAAgAElEQVR319uwX5f3s0lcIb+o/+5XKr3zy6B9Cfdiye1jxZg7m1fPj+n9UePVB+rPqtPLDv25S1TjJIxdFXPdce5LoWNBf9cFAQ1XMXLx+GO9HQ/pMq9vnr6akyQZhi5gmbxwpdsz5PdKJj1AYXiHX6l7mzPR7Zcr4Zm0jb4nx9LkBParjLvqT7FZ3R/3pOODZR48vcg7Yi/W/3imapzigvfFcu5LKFypxilBJoagzOUOzLjm/7JDsw0eHpKNDVSa199PXpJ8SQjKO8u9yi1PcPvllvR1tIuBIL1YS/U+rm2n8ZSg/ahevkeRWZUrYxnldnu6voD78MoOvdwrTziqxrnT5KGXLiq9b/yIMl+f+0L6snF52nqJ9PL+U8ByexHWhfCA8HtFkwGr/1eFZwBwQTwn4CbbL09FrVKM5wgKaRg7ynicdkKzzGNzBcXliXN0ef+nH9o3eZpYbvnLWD29LHRvJea67TA494U1XMU6GJxb6E0by5iblaXH5usP1audNTvVi5++qCo+rXD+ufNhnVXukbnqouMuUr2P6606ZlrtzRzm7lg/TkZ6t7J0S7buH3Wq/P1yVfV5lar5qsYp9+zvZaucI3LUgJwBzj6wVMnk5PrzOP/8TFOh/sDXB9SkpycptGxMzzHOsWbAWH0szdPHUk0rDajsT2vvzaw8WOnU6+ovqlV1bbXqltXNWS7NvlT1yU7/BORSD2u+rHEWkdM5R2Ufnm3reBMyxu0mvSzzYbWb6tWJVOqDtHXSzom87+c5bV261X5Tq3Z8uMOpD/IdpR5IO3x+t/NV9y7W5+/21bnPy3Al5b7nkz3qzYNvOmUvZS7LuV3PdX5aMlFv45JY29j0xG68QZSNmvfiPLX8jeVqf13rkw936dRFje05Vk3oNcHmhvsuZLm9V0NMr1cq1aznZqnN7212QlaLKahDlup/Un81+ZzJqvDEQtNfYaTetjvbezGmu/1jTX3owpcXqgdff5Ak1Yqq2iq1bfA2UyFaLsjmtfLfZSyC8TSxonKFKnu5TO3+uPV3vEv7MeqsUWpq/lSnXfEyVC17fZlaV7XOuZiMneS/vZLVF5CFJxSq4jOK1U1n3uQcf4bN1cfTCj9dQHrxZJhcsN/36n1OWyfhqjkJ3kNyh6ibz7rZ8/C9pXqLmv/ifKc+tNYOSyfDyDNHOu2wxfrqi3OfV+FqfdV6teiVRW2Wu1xoFucVqzE9xpg+Fru4FxXOlX4Hd8PlCqjU5KcseGmBKtpS5Gzkl/VfttvTIn9u6d6l6uh/OVoVHFtgq+x91WWqv8dtyuBtFGnkf7795+qXT/1S7T2wV9U3tH4syX97/W+vOyeFFz950Wn8DV5hy+3O12X+nHa2f6kydOtAwvyIP45QXx/6WqGVgKVPQLKfpVE3QJ4avbel40j/e5nzytiUG1KXr918rfqPiv9QH3z5QbtXrdKWSL0++YiTVa+udh9glCB1/6v3q+ufuF794e0/OGV8qOGfmxb5d299/pZ69J1Hne92TNYxKv+YfJNfRQ7eJ+J5q0IYwpUc77f+6VY17qlxTuCWtq8lcu55fv/z6nf7fuf0IkmZW7yI/7a+3rD1BlX6fKmzz9tqh+V7/+nDP6klry5Rh2Uepi453tpQ3LSe+7wIV1IPBm0epMoqytotd+lJlFAuF20ndz5Z9Tza6B1sGad6t5RzB7dBlCkCLjTV4AwvH+5caba1ga0FrQ3vblAfffWRGpgzUGVmZIauojU7EclrQ3JMHdRXbrxSbf9we1J/d/Wbq9UVJ11hsvHJ0uX7UBsHnFxOGnttyh3P3OGcWNG2d2rfcXp4DJAA9bzex/ua7ddC/eNXpr6v3Arst7Gf02AmQoLWmrfXqH80/ENdcaKdoWDyGUOfGOoEv/YuIps6+M1Bp6dLbl1cc8o1JodHHGxvbFwYwpUc530f66ue+fiZhC8wJNwee/ix1i7ipb4O+O8BTpua6Lnv8erHnTpxVc5VqlOHTqE593kRriQoDX18qBOcEu2U+P1bv3faiR9n/9hU5pCd9yddxm/H1mZk/iEJV1dvulqteWtNSutZ/OpipzeieTe7QWl/jNWdgNHIgBipVJdvuDzhg7r5Oi579LKU1tFMofu6pdbcbeqDZEzO4tcWk57isP2D7c5iSEu3d4ebWrncYhm4aaATZJIlvQjSo2sjXF2w9gLnKjhZMnRCLooMtnNpn0fOdrh65O1HnLaurSEn7QWZsU+OVQsrFhr/brH62lpvWrx1Qs6hqdR5P537vAhXsi9H/nFkq7cD420npEfUoIHyf5nuiT7XxBrv3H2n2vr+ViPfTkJayEPWABMrkUolt09iA2pTPWnIulJpIJqQci1q5aC73lS4dOrds3farCehM+v5WcYaEffdmd8J1iZWLEG/eGuxkf0q4zFk+IEp8p1GlI8wcjEivTEGG/Y8d7hHaMNVcbmZOjHx6YnO+kyRujDsiWFGvpvUiTCELK/ClexLE2T87n2v3Gfqqzljq6UH6yITa5OB1fNfmm+08EIesoxUunl75jllb4r0BskAeZMpvoWDbq6pD5BtX/XmKlJTAqQHy2CdGdNk38rFmpHHomQsoaGg7xj/1PgWB0EnY8lrS5yhDKZIwy4Dcw0pIlzFZ/SO0UYuTMXPtv3MaCAKesgKWrj6Nnj/eaJzDjR0sZMnAcvIoxUyBsZGEApxyEr5RCTd5DLWzTS5RWuokrV0NS1PmOWZ+q6T/sy0DMkwGKJHuXPoKVMXa3Iy3fXXXUa3V3p6pYc9VRL6Sl8oNb4/puyaYqqN6+11XQpiuIrtSxN1QsJxW0+2+jxkrW1nKEdkwpWQOjbn+TmmVjdAAlbKj7LERuTbEtKQlfLgdhnYZ/Iqv+nJaMUbK0ysKrvZgSePsJaY+p4b391ocjxRpEgPjKEeHdmnN8eu2kyscO6euVa2Wca3JDoItjkZJG2q16MpuaCR+mz6mCNctV8nUm1DbdVXj0KWjNvbZCpkBTlcfVsnKpebOsazM00ckCbvZUchZLmzl6f8ORve2WDtO8pTThYa+6nK0KSiUg+mPTONpJRC+cmtLkNig91THv8jAchGb4CptsrmMSdPPQYpYAU9XMUuJh95K/k6ISdi072taQhZfUyErDCEq1jbaOhiJ0cCVsqzbO36aJcnB3SIQpaRRjCZKRniJWN0TBzQuixzm/w0dmRIT4JMMojkPbD3gZSevGki3512I+Ve2S3v2Z1lIJWedikrm8ecobsAnkxdHoZw1TTAJEvm1vKC30NWWMLVt8ditZFj0enByk11LfIaFq+EJGQdn3KZf1ljvfFJ9XZKszA5Wxl636Cc6GbsnkFCSpGM4TPY+zzOR3WuVancFrV9zMn+MBF43YcNCFcJXEwmy+C0NoENWWELV7Fj3YBuRmbVMvV0ToRCVsoNoBeh1lAlO16Xo4zzG2nqe8mTkzbGwUTRoopFJo+ZlB/csN2WpFJvvGjnTI39IFzFL5UxWF52LvgxZIUxXJnsXMhUARWBebLabhT+fiAou0rGXN1j8gRkejqQKJPxI4ambOioPB5g7fXJNECsvFU6jOEq5YLu2Nnzz/RLyApruBKG3k/YMTPIrUjUQ1ZAyFMqhaZWJpNkWmxYIsngYHeEFOGqZfIy6XRId8gKc7gShl4ZV5MZ9AOfkOV7xg5AGe8gA7Nh1oP7HoxKzw4IV0bZfpm4H0NW2MOVs1+PNrJfgx+wCFnRYWsy26iTgdXyVCZAuEpMv5P6mbqdFIiQFYVwJQafauS1nuEIWISs8JMJRQ3NzYUWyOz9AOEqMRKuDJ2MgxCyukQhXHXp1EX1PaGviVVVZ4apQSBkhdftf7mdQrBIbr9uqd5CQYBwlaDpP5qe9u/gUch6O+zhSpQUlJjqlazJDFvDQMgKn9VvrrY6uzca0YsFwlXi8o/JV6POGhWFkNXF1ooXvLTAF+Eq98hcNabHGFOrK88MYwNByAoPZ1LRZ5lU1AvyfkLbE32CcBWmcBVz76X3pnXAu4chy7hJf57kvOw83Tof1lmtvWqtqd6rqoyMjL2ZYW0oCFnhIFMIyItwYZ8cK/e9ch8FQbgiXCVxcn5swGOmHu+PTMiScFX2clnav0fHzI5q+eXLnd5IU9er8n+ZYW4wCFnBJlMHlOwuoSA89ODrD5p6PyEIV5EIVzFye2nb4G2ErACGq1X9Vqmi3CKTq10X+oBFyAq2Oc/PYX4mj8lM+eur1lMQhCvCVRK6d+lOyApguLr+tOtNrlYK/KlIBCxCVjDJe98WvbKIgkgDPzR8IFwRssIZskIersTyjIwM5zZAZAKBhCyx8oqVTsFaClnSYI3QhctsmCm6c/ednt6qWnTpIjXu7HG+LhM5SfX4fQ/rY9Ji7yc0OB4BhKtIiYWsyzdcnvYX08dC1qarNzljxQhXVsOVnLRmxf4hM0qVnp6sYJCT+/I3lnv2eXlH5Zl8NNdqozC+13hPPov3ExKuCFdmQhY9WZEJV861ekZGRk0kAxYhKxjkQPTS/N7zbfVqGidB0IsGm/cTEq4IV4QswlVCpMGc0/RfZEax0hOy/Gvjuxud1+J4pfDEQtNPj1glc7RMy59m/XN4PyHhinBFyCJcJaQsIyPjQOQDFiHLn2RfTHtmmqefefdFdweunLzqxWJmd8IV4YqQRbiKy169zGv+LzOjXOkJWf4iPSYVn1Z49nkjzxypCo4tCFw5SS/WlHPsz3zM+wkJV4QrQhbhql379XJt7MlBAhYhy3ecV+Ls9u6VOBJSZp4/M7DldUv3W5y3vttGLxbhinBFyCJctUoqfbEOVy0+2p1JlSdk+cG8PfM8fZx5/NnjnacHg0rC1cQf2n85Ku8nJFwRrghZhKtWTdThqry1/0jAImSlnQSr+S/N9zScTD9veuDLbcIPJ1jvxeL9hIQrwhUhi3DVogd0uGqzcSRgpSFkqQhN8BoPmVTUy6daSgpKPLm95kVQ9KIXi/cTEq4IV4QswtV344JebmvvDxGw0hOySinpRjKQWk7gXpHbguN6jgtN+cns8zKezCbeTxg4swlXhCwvQ1YEw1Vcb2whYKUnZGVTyo1u33W7pw313IvmBmZS0Xh0y+qmxvYca/1zeD9hoPQhXBGyvApZhCsClh9DVuTJhKIyiNorvY/rbfvgS4up50613osVez8hootwRcgiXKmE3jVMwCJkpc3tf7nd08+7u/fdoSxHaZS96MXi/YSEK9pCQhbhKn4ELEJWWqyoXKF2f7zbs88bdvow1Se7T2jLU3qxbN/6lBdw835CwhWiE7Ku3Hhli9PnEK4IWIQsn5In0kp2l3h6EN514V2hLlNpkEfmjbT6GXI1u+KNFVRgwhUiErJkaMDlGy7/TsgiXBGwCFk+JvMqVR6s9Ozzgj6paLxkbi/bvViLXllEBSZcIUIhS570joWsiIWr5amEK+d7BqGyycmxqrYq7Qe6hCyx8oqVoXoSzUtyi6n0ee9mqZC5ooL8SpxEjxPpxbI57YU0tuXvl6t+J/WjMhOuPCEhw8u3PPgtZDXvQUpXyOrx+x6+GCLgUbgq08FqUqorCUQPloydkQL1Q6ihJys1c56f4+lBOuO8GaGYVDReXvRiLX6N9xMSrrwhE+mO7TE2svvCTz1ZhKskvm9QKpoUqBSsHw58erKSI7cFvbzFlHtkrjMRZ5RIL9bEXhPV7v32HiA48PcDzniszod1Nr5umddL9hsIVxKu7rn4HjXruVlBKb56G+dUP/VkEa5CGrAIWcEnDaWXr1wpvaDU+vxQfhTk6Sjku4d1Og3CVeLhKmCK9bKKkEW4igncIPdYyOJ2YbDIlAzymL9XCo4tUDfl3UTBA4QrT+iT8yNuyLJSiH66XUi4CmnAImQFk+eTil5ELwhAuCJkEa7SE64CG7AIWcGy8d2NzmtxvDIkd4gqPLGQggcIV4QswlVawlWgAxYhKxikPKbsmuLpQckYHoBwRcgiXKUzXAU+YBGy/G/Z68ucOVS8Mrr76EhMKgoQrghZYQxZYQlXoQhYhCz/kkf5Z+ye4dnnOZOKnjdTASBcEbIIV+kMV6EJWIQsf1rw0gJPHymecu6UyD1hAxCuCFlhCFlhC1ehCliELH+RYDX/pfmefV7OETlq8jmTOYMChCtCFuEq7eHK2a6wVWQmI/WHO3ff6dwi9Eo6JhWVSVNlfq9P6j5p9zUS++v2e1oeMfUN9aq6tjptjea9l96b0H6R8Xq2ez2j+IQp4cofIauhoYHJSCMSrkIZsAhZ6bfnkz1WXzjcXP4x+erms2727PPkZcfyPr7N721OS2gKilFnjUo49M7bM8963Wn4twbCFeEq1CFr6ONDPX24iHDVssywVmRuF6bP7btu93Rb5/f25lakNFhXbrxS9d/Y39mnhKu2G0558TQIV4Srfw5ZyoPbhfKTcJW+cBXqgEXISg+ZVHTr+1s9+7yBJw9U/U7q58l2XbD2Ak+3LcgGnzKY6TIIV4SrNIUsGYvl55AVhXAV+oBFyPKWbNfEpyd6epB68UocmctryOND6LFKwMzzmS6DcEW4ImRFN1xFImARsryzsGKhqjxY6dnnyRifXl17Wf0MecXP6D+NZl6zBMirimRcHAhXhKu4QtZoW+uPhSyZI9AvFl26yHa4WuSHcBWZgEXI8oYM+vaS7acG5clA5jNLHL1XhCvCVXwaGhpkXoXxNj9j3ovz2n3K2UtlL5fZfsqxv1uuBCxCVnhO3rMvmO3p58mTfDaflJnz/JxAPe7sB/ReEa4IVwmFq216KbD1GZP+PMkJNH4ibbblqSTknug2P4SszKhVakKWPb2P662Kzyj27POk3KQBsUHmrSqrKFNIDL1XhCvCVULhytoAKT+Gq6iFrMwoVm5Clj13XXiXpxN+ym3JLdVbjK93fdV6bg0miN4rwhXhinBFyIp4wCJk2ZN7ZK7zTkBPG/WnJxovu3VV6zgTJIjeK8IV4YpwRcgiYBGyLJp67lRP34klB+mS15YYXaeXT0OGQf+T+tN7Rbhip6QxXEk9GFE+IjDhKgohKzPqlZ6QZV7nwzqruRfO9fQzZzw7w+iTMtVfVCvEb/qPmLWdcIW0hit97lj15qpAlk9YQ1YmVd9/IevnO34e+DKVdwN62aMh4erOZ+80GhIRH3l5chRfoEy4Ilz5KVzF3nsbVGEMWQQsH4as5W8st/Z0nJe8bnhNTtuQc0QOB0WcZp7H2CvCFQhXhCwCVkBCltxHD3rIkl6NYacP8+zzTE7b4PcXpfppH9N7RbgC4YqQRcAiZHksqNM2DDttGAdDHOi9IlyBcEXIImARstIg76g8p0H29ARgYNqGQacM8vRJyCCi94pwBcIVIYuARchKo6n5wZu2QfZ7aUEpB0Ib6L0iXIFwRcgiYBGy0kje5F5yfomnn2li2gZ5ElJe/4N/Ru8V4QqEK0IWAYuQ5QO3/OAW1atrL88+z8S0DbLP1161licKWzDlnCkUAuEK30W4ImQRsAhZ3pOyK7vY2xmGZdqGVGdkl1ubm67exHisJmR+MxmjBsIV/ukkTbgiZBGwgh6y7tx9Z+DKsN9J/dTgUwZ79nnOtA1Ppx5GpefthZ+8wO1Cl9e3ewlXhKuoIlwFO2QRsAIasnbW7AxkGd5zyT2elt+Gdzeo8vfLU16P9GA9ed2TavFliyPdmyW9V0W5RTQGlkzZNYVwBd+FK3mzxZor1/hifsAghSwCVoBDVhDJtA1je4z19mTx54lGTlqyz8f0GKPeHvG2Wn7FcjXyzJEq98hc43WhW1Y3Z73xLPJnvUTvVfgRrghXLV1cyrlv2+BthKxEzhlU5eRDll+68oNm9gWzndcBmXw5c1sqPq1QS/ctdcKRCTJx6k15NzlLTO03tWl5f+HQx4eqdVXrPPkseq8IV4heuGoaqmL/LOHG1GvJUg1Z8n0s3VWIhazLMzIykkpy9GClGLLoyUqcTNtQeoG3c0yZmLahLekIV3s+2eNZuBL0XhGuEN1w1d6/T2fI8mtPFgGLkJUW0pvk5QG6v26/mvP8nFCV4aznZnn2WfReEa5AuCJkEbAIWQHgTNtwibfTNpRVlKU8bYNf0HsFwhXhKh3hipBFwGqxDhOy/GVAzgDV/6T+njZiJqZt8IM5L3jXG0fvFeEKhCtCVuIhK0oBS+Y1sNZlQshKjjTuQZy2IZ2kF47eKwQgXEmbu5uSDme4ImQRsL4jIyNjEiHLX2QSz9HdR3t7YjE0bUO6yFgyr74/vVeEqxTC1dV6qaW0wxuuCFkELEKWz80umO08WeiV2LQNQSS9V8srl3v2efReEa6SDVe6rSVcRSBcRThkrdUhqyMBi5DlazJZ5ozzZnj6mbanbbCF3isQrghXfgtXEQ1Z8u60/yRgEbJ8b0KvCc4s714J4rQNXvdeTcufRsUkXBGuCFeErNaNamhomEDAImT5mpTR3IvmevqZQZu2wcveKwm7Un9BuCJcEa4IWW2ar0NWPwIWIcvXpKwKTyz0tMELyrQNXvdeyS1b6izhinBFuEr1c2SoQchDljSUa3TI6kbAImT5GtM2tMzr3qum71kE4YpwRbhK9vPkRdF9svuEPWTJU1rTCViELF+Tq51RZ43y9iTk82kbqj6vovcKhCvCVaDCVYy8p3XT1ZuiELLGNp+6gVa0WcjSBeS0TTZDVnF5caDnYbJNpm1Y9eYqVfuNN+22TNsgM6P3PaGvL8tj2evL6L0C4YpwFbhw1TxkXb3parWzZqcvQpaUh5SLQVl6uUsvPydgEbJ8Syq9PMEmUyl4peS5Egpe0XtFuCJcEa4IWSkYqfPDHH1sOE9PcYuwlZCluF2YVpPPmaxyj8ylIDxE7xXhinBFuPIiZIX4dqGc1L8di0XAImT5UlaHLDX3wrkUhIfovSJcEa4IV4SslA2JzfBOwCJk+dbwM4b74iCMAnqvCFeEK8IVIcsIeaKwDwGLkOV7lk8acNF7RbgiXKXmtp23Ea4CHLKGPj5U1f2jztQqBxGwCFm+V3BsgRp55kgKwiJ6rwhXhKvUyJO+D+x9gHAV4JC166+71G1P3mZqdUMIWISsQLjrwrucMVmwg94rwhXhKnny0vgpu6YQrkIQsh58/UEnaJm4bm1oaMgjYBGyfC/niBxePGwJvVeEK8JVaha+vNB5eXwEwtWDerEyt5CfQtYdz9xhalXnErAIWYEwNX+qE7Rg1pRzp1DXCFeEqxQsf2N5Wj/fo3A1UdcHmUCzOOwha/sH21X1F9VGdg0Bi5AVCM60DRcxbYPphvnms242tboadwHhKjJkcLS8iD0C4Wqhe+57JAoha+O7GwlYhKxAOGBqRXIrSwa9wwy57WpwbJuk3zpKlXAVJX/5618iE66anPtCH7J2fWRkHFYOAYuQZZuceI012EzbYK5xHtNjjKnVSc/VEkqVcBU1hm4l+TFcSXgqbh6uohKyDO3XYAQsQwHDSkUgZLWr0g1ZRsgBV3xGMS17ikz3XunjoM5kkLalS6cuhCvClbkUkob3yXoYrla3c+4LbciqbzCySVkSsFLu1rf9zjhDg5utXWqENWR1y+pmYjUf6WWBXqpMfS+mbUi9gbbUe5Xyo1TW25LOybclWR29r3MhCFcp1wnb7V4qbYnX7ZCH4eqROM99oQxZhvZrXaaJ4JF9eLbVjfV7wApryDL0lvFqt3fD2DwLchKWp9+QHEu9V3461q2s33Y7F8JwFQvgvq4TqbRzqQT2oIerMIcsU5nDSMDqfXxvqxt7/rHn++JAj1LIkvmRDPVgVbtls9pt0I2YfM5kUwEwUiyPvUq5LRlw8gCr2z/w5IEpBXtDx0RUwpWRdvfso8+2+gXzj8lP+u/2PaFvpMNVWEOWoc+pMRKwik4tsnqiT+UA8DJghSlkDckdYmI1+3V5ND3gJpn6fjKWprSglMSUIMu9V3tNXDn2Ps7eBZscP+kKaBEMV0ZCtzw5bLMXa/Apg1Oqr7269op0uApjyBp0yiAj579ME8FDruwKTyy0sqEG30P3kVcnsTCErJvONDK7d02zctmtfxiblU/mcDIUviPBgycH95pYsa1Z+0edNSrlE7XtByxCOKDdyNAMW+Uux0SqvVCju4+OfLgKU8gadvowUz3VTg9WlYk12WgUpHLJrSBD9ioPBTlkSag1FFxaKnN5D4GRMTuy7UzbkFhwsTz26jkTKy7KLTLegMp2y8MRJq5sbTXuIX1a0MiFrZwH5ORq2owfpf4eTrlokTstUQ9XYQhZUhdMtBOuFyVgrTexJjkhjz97vNGNLbu4zNRBtVPvdM9fFhXEkCXJfXbBbFOr29xCmcgVrbFpG6Tn1NDtzFDzYt4rvW+rTF2w/a7wd0anVFh82WJjY/akATZ9YRPWqRj051UoEw9S6X0nYcgkubVn4piQ8L6ozyKjdUJC1bNDnw1cuAp6yJI6Zigsy8NdFZnuCW+3iTVKA2HqVuGM82ao4WcMt3aiJ2S1nN4f7v+wqUfl69sI7/OUwac67+59N68Vaodc/Hj05OBWEx8gjdyaK9cY2a/Sc2fwlUBOoz6/93zCVfw2mFiJvI80lfFSzS8k11611li7MSBngCo5v8RYuJKeK4vjzqyGq6CGLLlQn3n+TKOZIzbR6DoTa5TK+tiAx1IeCCoN4szzZprcF6vTeXLzImStu2pdSr198nfX9F9jcizdrtZ6DU1P2yAn44m9JpKiWiE9QePOHmdqde3N2r7K1Af1O6mfeuKaJ1LqySq9oNRkl/+3JvSaYGSsmHy/CEwiusbUilb2W5lyGyX1ScKV6dt60380PeWQFQtXFp+Q9iRceR2yUh2jJ3//ocsfMvnVnEzVQf6vpKTkc/1jrIm1durQyfmyDfp/T3/0tDrUcCihii9d+XK/PTPD2CTzlXonz0r3SW7WrFlbdDnLmcLKI1Jnff8s9ZPTfqLK3y9X++sSuxsqDdzKEvAAAAu4SURBVM2mazaZflDh/+ht/ksb5fGyLg9J4kYu0y487kK15NUlqu4fvA6vpQsWg0+/zdDH01Nt7Ne39X6VUb9Hmfgw6U2VQacvf/qyqvq8KqG/t/yK5eqW7rdYK9f+J/VXpx15mtr83uaEZ36WE8MfrvqD1e/nk3Al55cP9Q+5Aupk4vwyMm+k+rjuY7X748RvvMhtwfLB5dYejpE29Iddf6j++MEf1Zf1Xyb0d8f2HOvcQeia1TUU4apJm/CargOv6l9/0qRTxxipE9JGHN7hcLWzZmdCx6L06jsXOZfc46zHEDkJjdPb/XUHtwBqdAHI43pG9qyEoytOvELdmHej+uzvn6nX//Z6mxst3bW/6vUr9fCVD9t4RPu3evvK/XCisx2ypBzH9hirjsk6RlV8WqEOfnOwzT8vXdC/6f0btbTvUnXiESea/jq/1Nv7aTsN7yv6h5FHcORAOfKwI9V/v/ffJKpmFy0r+680dXtQeq9+pvdrfTv7VcKVsbTe9V+6Ok8A9ujSQ9V8VaPerX23zYuFfz/339VDVzykeh7d03r5yolaHgr529d/U3s+2dPun5de/l/0/IVzIj2v23mhD1duu1ev64TsjHNMnV/kVmHhCYVq34F9cb03TtrGX1/4a7XksiXquMOPs7q9Uu/+rce/OSf8is8q2gxaUh+uO/U6p/dE/o7Bk7wvwpVXIUvIrUJ5ovOL+i/U3gN71deHvm7zfDHqB6PUin4rnPI3bLMu52XyS0bs3zQ0NMhov8U2Nlx6Fba8t8VpgORgkPc3yRVc7BFZCVWWxtBIkjzTHWfmG7qs73Gv6KySNL/jwx1O2JITk1QqmY1auqHl9ovML2PJOl3mQ+Msi5WqsQs59RZE16t5L85Ly/vB/EoCgDyVZ6ozIp7eYL1P5Rnn96Qds7FN0oZIva78W6XTqyWzaUu9vjT70rRO2yHfa+O7G9WGdzaoqtoqVfNljdOuyXfL+36eGpgz0NkXHkxW6rt3C+o60U8ZGp/XnJxXpNy3f7DdqQ/S1kkZS7lLj5WMrZH2Lh2v15K2aNdfdzn1VerHgb8fcL6HfD9pf+V7eVAf0hqumtUDmYhOhhFYHTQrmeOpmqecc6CUu/xzx4yOTltR0K2x3G08leq6wJ2S6DsBSzb4NbkIDNH5RQbj3uHHL+ZVyEoDOZh76HKvjLMcct16x8sF/e2AXk7T+/VAxOu33/n2xc26TmxTBns2Eaxw5XXISpPvdC5821Xnzrgdphe8yYlgnl+/nO2B72n0QLzhyi2HKv1jvoLflcUbrlxz3GMQhKuYSeyiaIcrt823OvA9zeX9nR7+zGYbvl4ZfF9cmpUkeEIgZKWutnkFi9MC5dGrjJD0xcrCBOu2PGkxjaIjXDWpEzJIbTm7KrrhKuQha7lbx1sOWK47QrChVartR8kJWXbM19tTk0QZyAm8hDbRt8qSvFhZGqILNsKVGXIBxqO+EQ5XIQ1ZUqfnNP+XmS1s9M6An+xkQ29oYyJEQpYd21uqYAmejPcq+E3CvVdN6rU0nCMUtwoJV/9TJyq5mCJchTBkjW5paEyHFi8xZs3aUVJSIo/jdA/gho7SG7olaF/a9hQOllW5jfzBFLb/kN5+Wc+NtJG+MjeV40nv14N6v8rrUn6qLD2eTbgKRrhqUiee0nVCHqY6h10Y3XDVpD5Yn8LBgzayxdmC29qYn+llT8A2tFRv6IqgHh0B7cmSxv3aZG4NtrD9G1VjTxj8Ieneqxb26xSKk3DVxK3K0CvaENxw1aSNCGpPlrwS587W/mNmGxvsnDhVcAYfy/uuZgX9KAlgyCp2X+hqCk8a+evK7IChei1BjadFCVex+lAXsPML4YqQ1ZwMaRnhDoVoUYe2/rbbvS+zoMsbNo/y8YZKihwepHFX7ZS73C6UnXaFzw/qf9NlvtrwtstbBWTmvQtpN9NKxhPc3N6s7Qnu2yf0vpW5b35M8SZNJuu8Nsjhqkl9qNX1YYdqvDX0PXZtUqQeDNH14bGQnPvkduHz+leZXr2Tj79qjXuR0+Yk5h3iPOHJbNvyyuocH27oXL3cGpZw1aTcn9TlLjtRXiKX6cPKNcid1sM4vd1PqsaxWF0U0hWeb0hkPrME6vU2vX+lV6y/D+v1A3qR95qc4tP9IpMzXh+mtk7Xhw90fVirf71KL918eiw87dM6EWuHd4Ts3PeGew64zqfBW3quLnbncFQpBawmVxrL3EqW75ONlEZGRu4vkAHSYTzL6e16Tpf7M27I8ktFk3F5V+pyf8nidn+tt1sGVsv7MZnh3Xv/rvfvSov79y96/8pJ6xqf1Gs5if5Cb/NM/b0e8lk7FyPjS8eFsa2Td5a65xd5OaOf3iQic7ld69YLqSM/9tFFwR63B+UlFUK6Tryry1x65Qr1cpyPvpr0IBfFO+Y4I9G1NzQ0TFaNvUbpnOa+2r3C3hWFs50uc+k5jPUiptMavfzcq9sTertlezfppbOCV8rccYBe1euHVHpfnyLjB3/WfIJA/d1uUY1jIdNd9+QkPzKIT0YnUR/knDJb+WOCWjm3jGjaS6G/n9TT3+klN83fbZFebg/bXZtW6oQcf/fqZZQPLsJK9TKnrTFXKQcsd6Pz3AOh2OONPOA2evOiULlaKPdb3HDrdVe6nHym6DIvT8M299I/ntBLNtnHegMyTXqE07CPb1aNA+C9rNd17mfOaa0tcd+T+Z+q8XZmOsis55PcWfGj1M4Nck9m6ehFlLowQy8LWzqR6u8mPeozVeN7Nr3uXZeLgdvcuSqjdu4rcs/96Qi3u91yT/ip14wUN1oOgHs8uAKVir7YbQwj/dSJLvMu7gE+2oOraxmDI7cmlqV5m+XEe79ehpGDrJAeYenF2Z7mej3BPXHZHHtX7waXO9sboNrshC+Nu1e3r+SC5pdRPJE2KXPpzbrJDVpejf2VenFHPPXC7WSYrhqHMdi+m1PlXgwsSaT3JIR1QgLtVA/aiBjJGiV6WZpsuWcY2vB++sd41ThWyGSql4ou0y8ssDHgNgRBa5xexlpogKRhX+Me0HU+2uYit8LnUwOMqHUb7oV+eW+nW6+lp3aUXnoZXLX0Askg9vviDVYtnPAlaMntK1uTAcv4jrnp6Cn2+UlVgrfMo2ajh1Pat1XuOaYiie+X67bDoy2c9He6dXZFlINVGxdjcu6zcWdDBrHPNVHuGRYOhgGqcVqHIUkeEJVuhd8S5Su4BMu9j3u1V6iSm32/zj2YY+Ve7fPtHeReOQ5RDIJPxm73an2Fn28/6f3c2w01/ZMMNXub1Osdpk5Sbs/99apxiESqvVoV7vdbEc9TSRFu4yTgSjtX5B73uYYuIo0cA+736+vWif5Jfj9ph3e5QXs1nQpxl/koN3OkEnDl2Fvn1gdjE+BmWN54aYjOcFNmbMl1T4pyxVzjbli1+/s+KlXK5S5lfJHb8Oc1KW9Z6puUdWx5R064QZxXxw30vdztlTAvPXkdqQX/RPZ5rXsyf8ovvVVJXLVKe3K2exHR2W1Pspo0kLXuBZosz3kxnMDtwZBGvsD9Xt1Vyz3K9U2+W6V7It0R9SEPKYbcIreNy3GXbNXysIkqN2zLst0t9wMe1Ivz3fqQ2ySId3brqXLPgbH68IrbDvMi7NTqRF+3rLu7Pzs36+ipaVbue9z6YOXiJoPdAgDWLnbqghhoA1zmTU+odQRYAAAAAAAAAAAAAAAAAAAAAAAAAAAAAAAAAAAAAAAAAAAAAAAAAAAAAAAAAAAAAAAAAAAAAAAAAAAAAAAAAAAAAAAAAAAAAAAAAAAAAAAAAAAAAAAAAAAAAAAAAAAAAAAAAAAAAAAAAAAAAAAAAAAAAAAAAAAAAAAAAAAAAAAAAAAAAAAAAAAAAAAAAAAAAAAAAAAAAAAAAAAAAAAAAAAAAAAAAAAAAAAAAAAAAAAAAAAAAAAAAAAAAAAAAAAAAAAAAAAAAAAAAAAAAAAAAAAAAAAAAAAAAAAAAAAAAAAAAAAAAAA88P8BxUdIO6hYTvIAAAAASUVORK5CYII=;" vertex="1" parent="1">
          <mxGeometry x="693" y="-88" width="92.28" height="92.28" as="geometry" />
        </mxCell>
        <mxCell id="EXSZMAO2B3HAXZOh8qR--57" value="" style="shape=image;verticalLabelPosition=bottom;labelBackgroundColor=default;verticalAlign=top;aspect=fixed;imageAspect=0;image=https://velog.velcdn.com/images/keembogeul/post/10872e1d-af06-4e5a-a8dd-f5daf5191570/image.png;" vertex="1" parent="1">
          <mxGeometry x="901.5" y="-27.3" width="162.65" height="62" as="geometry" />
        </mxCell>
        <mxCell id="EXSZMAO2B3HAXZOh8qR--63" value="" style="endArrow=classic;html=1;rounded=0;fontSize=12;startSize=8;endSize=8;curved=1;entryX=0;entryY=0.5;entryDx=0;entryDy=0;" edge="1" parent="1" target="EXSZMAO2B3HAXZOh8qR--50">
          <mxGeometry width="50" height="50" relative="1" as="geometry">
            <mxPoint x="799" y="-40" as="sourcePoint" />
            <mxPoint x="855.5" y="-141.3" as="targetPoint" />
          </mxGeometry>
        </mxCell>
        <mxCell id="EXSZMAO2B3HAXZOh8qR--66" value="" style="endArrow=classic;html=1;rounded=0;fontSize=12;startSize=8;endSize=8;curved=1;entryX=0;entryY=0.5;entryDx=0;entryDy=0;" edge="1" parent="1" target="EXSZMAO2B3HAXZOh8qR--57">
          <mxGeometry width="50" height="50" relative="1" as="geometry">
            <mxPoint x="798" y="-40" as="sourcePoint" />
            <mxPoint x="856.5" y="-141.3" as="targetPoint" />
          </mxGeometry>
        </mxCell>
        <mxCell id="EXSZMAO2B3HAXZOh8qR--71" value="" style="endArrow=classic;html=1;rounded=0;fontSize=12;startSize=8;endSize=8;curved=1;" edge="1" parent="1">
          <mxGeometry relative="1" as="geometry">
            <mxPoint x="612" y="-37.78999999999999" as="sourcePoint" />
            <mxPoint x="688" y="-36" as="targetPoint" />
          </mxGeometry>
        </mxCell>
        <mxCell id="EXSZMAO2B3HAXZOh8qR--72" value="Run" style="edgeLabel;resizable=0;html=1;fontSize=12;;align=center;verticalAlign=middle;" connectable="0" vertex="1" parent="EXSZMAO2B3HAXZOh8qR--71">
          <mxGeometry relative="1" as="geometry" />
        </mxCell>
      </root>
    </mxGraphModel>
  </diagram>
</mxfile>
